<svg id="svg" version="1.1" xmlns="http://www.w3.org/2000/svg" xmlns:xlink="http://www.w3.org/1999/xlink" width="400" height="400" viewBox="0, 0, 400,400"><g id="svgg"><path id="path0" d="M153.712 112.261 C 153.371 112.399,153.471 112.722,154.042 113.329 C 154.817 114.154,155.560 115.581,157.616 120.200 C 158.106 121.300,158.915 123.100,159.414 124.200 C 160.414 126.402,163.623 133.571,164.877 136.400 C 165.315 137.390,166.090 139.100,166.599 140.200 C 167.107 141.300,168.058 143.370,168.712 144.800 C 172.451 152.976,182.527 173.414,187.446 182.800 C 201.121 208.894,201.831 213.387,192.476 214.628 C 190.590 214.878,190.350 214.812,189.289 213.749 C 187.411 211.868,179.868 198.239,178.683 194.586 C 178.543 194.154,178.146 193.080,177.800 192.200 C 177.455 191.320,176.563 188.800,175.819 186.600 C 175.075 184.400,173.715 180.530,172.796 178.000 C 171.877 175.470,170.979 172.950,170.800 172.400 C 170.621 171.850,169.719 169.330,168.796 166.800 C 167.873 164.270,167.021 161.840,166.901 161.400 C 166.782 160.960,166.554 160.420,166.395 160.200 C 166.236 159.980,165.707 158.630,165.220 157.200 C 164.438 154.906,163.448 152.327,162.379 149.800 C 162.193 149.360,161.298 147.110,160.390 144.800 C 159.482 142.490,158.582 140.240,158.390 139.800 C 158.197 139.360,157.034 136.480,155.804 133.400 C 153.346 127.245,153.109 126.663,152.470 125.200 C 151.162 122.208,149.989 118.937,149.765 117.655 C 149.161 114.205,147.648 113.473,146.832 116.237 C 146.152 118.543,146.717 121.618,148.701 126.400 C 149.688 128.780,149.921 129.324,151.012 131.800 C 152.530 135.246,153.117 136.603,153.827 138.300 C 154.172 139.125,154.608 140.160,154.796 140.600 C 154.984 141.040,155.452 142.300,155.835 143.400 C 156.218 144.500,156.682 145.571,156.866 145.780 C 157.050 145.989,157.200 146.563,157.200 147.056 C 157.200 147.549,157.366 148.055,157.569 148.181 C 157.772 148.306,158.065 148.986,158.220 149.691 C 158.375 150.397,158.637 151.250,158.803 151.587 C 158.968 151.924,159.410 153.190,159.786 154.400 C 160.161 155.610,160.611 156.960,160.787 157.400 C 161.187 158.402,162.876 163.822,163.779 167.000 C 164.154 168.320,164.614 169.760,164.800 170.200 C 164.987 170.640,165.233 171.450,165.347 172.000 C 165.461 172.550,165.849 174.080,166.210 175.400 C 166.572 176.720,167.024 178.520,167.216 179.400 C 167.408 180.280,167.850 182.260,168.200 183.800 C 171.076 196.475,170.098 211.391,166.248 213.579 C 163.977 214.869,154.320 221.244,153.671 221.881 C 153.381 222.166,153.010 222.400,152.847 222.400 C 152.684 222.400,152.202 222.717,151.775 223.104 C 151.349 223.491,150.190 224.433,149.200 225.198 C 148.210 225.963,147.207 226.771,146.970 226.994 C 146.734 227.217,145.492 228.300,144.211 229.400 C 141.476 231.748,135.200 238.746,135.200 239.448 C 135.200 239.715,135.043 239.993,134.851 240.067 C 133.640 240.530,132.232 245.091,132.216 248.600 C 132.152 262.960,146.842 268.724,171.000 263.820 C 172.760 263.462,175.010 263.013,176.000 262.822 C 176.990 262.630,178.880 262.177,180.200 261.814 C 181.520 261.451,183.050 261.061,183.600 260.947 C 184.150 260.833,184.960 260.587,185.400 260.400 C 185.840 260.214,187.280 259.761,188.600 259.394 C 189.920 259.028,191.374 258.582,191.832 258.403 C 193.410 257.788,204.680 264.881,209.800 269.712 C 216.278 275.823,224.800 276.720,224.800 271.289 C 224.800 270.771,224.964 270.040,225.165 269.665 C 225.366 269.289,225.746 266.466,226.010 263.391 C 226.273 260.316,226.627 256.180,226.796 254.200 C 227.722 243.334,228.096 242.597,234.724 238.597 C 250.697 228.955,262.632 218.219,266.073 210.400 C 266.509 209.410,267.044 208.265,267.263 207.857 C 269.236 204.169,267.122 194.527,263.537 190.860 C 259.034 186.254,245.602 185.155,231.000 188.196 C 229.240 188.563,227.080 189.014,226.200 189.198 C 225.320 189.382,223.520 189.828,222.200 190.190 C 220.880 190.551,219.350 190.939,218.800 191.053 C 218.250 191.167,217.440 191.410,217.000 191.593 C 213.019 193.252,210.125 192.996,208.000 190.799 C 207.890 190.686,207.080 190.116,206.200 189.534 C 201.475 186.406,195.307 180.057,190.703 173.580 C 187.535 169.125,186.800 168.010,186.800 167.664 C 186.800 167.446,186.658 167.207,186.483 167.133 C 186.163 166.998,180.800 158.582,180.800 158.215 C 180.800 158.105,180.197 157.067,179.460 155.908 C 178.723 154.748,177.524 152.720,176.795 151.400 C 176.066 150.080,175.112 148.370,174.675 147.600 C 171.843 142.610,165.822 130.571,164.372 127.000 C 164.193 126.560,163.316 124.636,162.423 122.724 C 161.531 120.812,160.800 119.135,160.800 118.997 C 160.800 118.859,160.350 118.157,159.800 117.436 C 159.250 116.714,158.800 116.008,158.800 115.865 C 158.800 115.124,155.046 111.888,154.353 112.032 C 154.269 112.049,153.980 112.152,153.712 112.261 M236.233 233.879 C 236.547 235.976,235.833 236.884,232.528 238.588 C 231.688 239.022,229.901 240.057,228.557 240.888 C 227.213 241.720,226.006 242.400,225.875 242.400 C 225.744 242.400,224.141 243.255,222.312 244.300 C 220.484 245.345,218.323 246.552,217.510 246.982 C 215.058 248.280,212.806 250.564,213.829 250.715 C 214.852 250.866,216.433 253.931,216.659 256.200 C 217.103 260.645,217.389 265.600,217.202 265.600 C 216.132 265.600,210.757 256.653,210.256 254.038 C 209.918 252.274,209.332 251.600,208.134 251.600 C 207.270 251.600,197.426 254.675,195.400 255.578 C 193.886 256.252,187.179 258.387,182.600 259.652 C 181.720 259.895,180.203 260.343,179.229 260.647 C 176.947 261.359,175.984 261.345,174.892 260.579 C 172.684 259.033,173.218 257.411,176.236 256.497 C 189.177 252.578,189.672 252.415,198.000 249.315 C 202.293 247.717,203.251 247.326,206.511 245.848 C 207.782 245.272,208.914 244.800,209.028 244.800 C 209.951 244.800,227.493 236.005,232.800 232.881 C 235.176 231.482,235.905 231.695,236.233 233.879 M211.418 240.164 C 212.518 240.968,211.392 242.159,208.109 243.660 C 205.063 245.054,203.033 245.199,203.373 244.000 C 203.498 243.560,203.703 242.838,203.828 242.396 C 204.367 240.497,209.721 238.923,211.418 240.164 " stroke="none" fill="#f5f5f5" fill-rule="evenodd"></path><path id="path1" d="M0.000 200.000 L 0.000 400.000 200.000 400.000 L 400.000 400.000 400.000 200.000 L 400.000 0.000 200.000 0.000 L 0.000 0.000 0.000 200.000 M155.336 111.747 C 156.680 112.309,160.400 116.211,160.400 117.060 C 160.400 117.320,160.535 117.593,160.700 117.667 C 160.865 117.740,161.520 118.880,162.155 120.200 C 163.264 122.504,163.625 123.308,164.933 126.400 C 165.259 127.170,166.173 129.208,166.963 130.929 C 167.753 132.650,168.400 134.225,168.400 134.429 C 168.400 134.633,168.580 134.800,168.800 134.800 C 169.020 134.800,169.200 135.138,169.200 135.551 C 169.200 135.964,169.470 136.526,169.800 136.800 C 170.130 137.074,170.400 137.621,170.400 138.016 C 170.400 138.410,170.535 138.793,170.700 138.867 C 170.865 138.940,171.642 140.260,172.427 141.800 C 173.875 144.641,175.945 148.418,177.249 150.600 C 177.644 151.260,178.282 152.430,178.668 153.200 C 179.054 153.970,179.601 154.838,179.885 155.129 C 180.168 155.419,180.400 155.914,180.400 156.229 C 180.400 156.543,180.559 156.800,180.753 156.800 C 180.948 156.800,181.206 157.115,181.328 157.500 C 181.570 158.267,183.262 161.280,183.630 161.600 C 183.757 161.710,184.207 162.430,184.630 163.200 C 185.054 163.970,185.490 164.690,185.600 164.800 C 186.179 165.379,188.400 168.878,188.400 169.212 C 188.400 169.425,188.580 169.600,188.800 169.600 C 189.020 169.600,189.200 169.788,189.200 170.017 C 189.200 170.246,189.388 170.651,189.618 170.917 C 189.848 171.183,190.433 171.963,190.918 172.650 C 195.401 179.006,202.344 186.107,207.200 189.301 C 211.393 192.058,212.153 192.262,215.089 191.413 C 216.360 191.045,218.390 190.463,219.600 190.120 C 220.810 189.777,222.213 189.340,222.719 189.148 C 223.224 188.957,224.091 188.800,224.645 188.800 C 225.199 188.800,225.991 188.619,226.405 188.397 C 227.124 188.012,229.363 187.579,234.600 186.810 C 235.920 186.616,238.080 186.266,239.400 186.031 C 242.482 185.483,252.916 185.491,255.000 186.042 C 255.880 186.275,257.136 186.567,257.791 186.692 C 261.054 187.310,264.632 190.218,266.249 193.563 C 266.843 194.793,267.512 196.160,267.734 196.600 C 269.294 199.685,269.241 207.319,267.648 208.912 C 267.402 209.158,267.200 209.619,267.200 209.935 C 267.200 211.990,258.088 222.645,252.600 227.010 C 251.500 227.884,250.510 228.713,250.400 228.852 C 249.946 229.423,239.959 236.400,239.595 236.400 C 239.378 236.400,239.200 236.559,239.200 236.753 C 239.200 236.948,238.885 237.212,238.500 237.342 C 237.813 237.572,236.394 238.402,236.000 238.804 C 235.890 238.916,235.141 239.353,234.336 239.776 C 230.994 241.528,229.200 243.147,229.200 244.409 C 229.200 245.070,229.038 245.923,228.841 246.305 C 228.318 247.317,227.552 253.056,227.173 258.800 C 226.389 270.665,225.649 273.412,222.640 275.625 C 221.348 276.575,221.203 276.800,221.880 276.800 C 222.853 276.800,225.200 279.298,225.200 280.334 C 225.200 280.722,225.355 281.211,225.544 281.420 C 225.733 281.629,226.194 284.950,226.568 288.800 C 227.477 298.145,228.673 304.269,229.765 305.168 C 230.004 305.365,232.450 306.681,235.200 308.092 C 260.802 321.228,271.779 333.842,266.700 344.292 C 264.869 348.059,263.598 349.216,259.200 351.121 C 254.939 352.966,242.267 352.998,232.600 351.188 C 231.500 350.982,229.880 350.734,229.000 350.636 C 228.120 350.538,226.140 350.184,224.600 349.849 C 223.060 349.515,221.260 349.133,220.600 349.002 C 219.083 348.699,217.197 348.211,214.400 347.399 L 212.200 346.761 209.200 348.324 C 203.867 351.103,200.954 352.923,199.800 354.196 C 199.580 354.438,198.991 354.918,198.491 355.262 C 197.992 355.606,196.909 356.511,196.085 357.273 C 193.371 359.785,192.561 360.145,189.866 360.042 C 186.505 359.913,186.025 359.378,187.364 357.257 C 187.934 356.355,188.400 355.378,188.400 355.088 C 188.400 354.798,188.564 354.389,188.764 354.180 C 189.320 353.599,192.813 347.409,195.128 342.902 C 199.073 335.222,199.211 331.992,195.661 330.464 C 191.005 328.462,189.385 329.149,185.442 334.800 C 181.318 340.709,178.923 344.936,175.753 351.900 C 175.177 353.165,174.457 354.678,174.153 355.262 C 173.849 355.846,173.600 356.611,173.600 356.962 C 173.600 357.313,173.432 357.600,173.227 357.600 C 173.022 357.600,172.752 357.915,172.628 358.300 C 172.370 359.095,170.653 360.000,169.400 360.000 C 168.938 360.000,168.344 360.216,168.080 360.480 C 167.493 361.067,167.376 358.396,167.961 357.780 C 168.160 357.571,168.423 356.590,168.547 355.600 C 168.671 354.610,168.989 352.270,169.255 350.400 C 170.950 338.485,169.407 331.328,164.600 328.809 C 134.502 313.042,125.955 301.941,135.409 290.897 C 140.364 285.110,151.163 283.540,168.800 286.042 C 173.513 286.710,175.763 287.102,178.800 287.781 C 180.450 288.150,182.520 288.598,183.400 288.776 C 185.572 289.215,189.523 290.305,189.990 290.594 C 192.322 292.035,197.428 289.589,210.798 280.628 C 214.488 278.155,217.216 276.805,218.551 276.791 C 219.537 276.781,217.907 275.227,216.892 275.209 C 216.328 275.199,213.321 273.378,212.480 272.537 C 212.185 272.242,211.821 272.000,211.671 272.000 C 211.522 271.999,210.860 271.534,210.200 270.966 C 207.412 268.566,199.705 262.851,198.500 262.290 C 198.005 262.060,197.600 261.720,197.600 261.536 C 197.600 261.351,197.416 261.200,197.192 261.200 C 196.968 261.200,196.071 260.750,195.200 260.200 C 193.229 258.956,192.135 258.957,188.600 260.207 C 187.060 260.751,185.431 261.197,184.980 261.198 C 184.529 261.199,183.989 261.361,183.780 261.558 C 183.409 261.908,181.213 262.492,177.600 263.204 C 176.610 263.399,175.171 263.748,174.403 263.979 C 173.634 264.211,172.455 264.400,171.783 264.400 C 171.110 264.400,170.389 264.561,170.180 264.758 C 169.971 264.955,168.630 265.220,167.200 265.348 C 165.770 265.476,163.520 265.749,162.200 265.956 C 159.036 266.452,151.071 266.466,148.800 265.979 C 147.810 265.767,146.370 265.491,145.600 265.365 C 143.847 265.078,143.254 264.851,139.855 263.163 C 137.042 261.767,135.445 260.228,134.140 257.658 C 133.733 256.856,133.265 256.140,133.100 256.067 C 132.935 255.993,132.800 255.693,132.800 255.399 C 132.800 255.105,132.544 254.355,132.230 253.732 C 131.011 251.309,130.647 249.288,131.136 247.655 C 131.391 246.804,131.600 245.667,131.600 245.130 C 131.600 244.593,131.864 243.804,132.187 243.376 C 132.510 242.949,132.780 242.371,132.787 242.091 C 132.798 241.643,134.640 238.530,135.207 238.000 C 135.324 237.890,136.032 236.990,136.778 236.000 C 138.356 233.909,142.077 230.177,145.155 227.600 C 146.337 226.610,147.515 225.598,147.773 225.351 C 149.276 223.909,162.452 214.800,163.034 214.800 C 163.155 214.800,163.843 214.350,164.564 213.800 C 165.286 213.250,166.006 212.800,166.166 212.800 C 166.737 212.800,167.600 211.644,167.600 210.879 C 167.600 210.451,167.889 209.313,168.242 208.350 C 169.031 206.198,169.199 191.427,168.460 189.173 C 168.213 188.418,167.835 186.720,167.621 185.400 C 167.126 182.346,166.620 180.021,165.795 177.000 C 165.435 175.680,164.993 173.970,164.814 173.200 C 164.635 172.430,164.310 171.260,164.091 170.600 C 163.872 169.940,163.473 168.590,163.204 167.600 C 162.934 166.610,162.483 165.170,162.200 164.400 C 161.917 163.630,161.469 162.190,161.205 161.200 C 160.940 160.210,160.470 158.809,160.162 158.086 C 159.853 157.364,159.600 156.455,159.600 156.066 C 159.600 155.678,159.452 155.189,159.271 154.980 C 159.090 154.771,158.603 153.520,158.189 152.200 C 157.774 150.880,157.293 149.629,157.118 149.420 C 156.943 149.211,156.800 148.637,156.800 148.144 C 156.800 147.651,156.634 147.145,156.431 147.019 C 156.228 146.894,155.935 146.214,155.780 145.509 C 155.625 144.803,155.353 143.950,155.176 143.613 C 155.000 143.276,154.280 141.560,153.578 139.800 C 152.303 136.602,151.511 134.763,149.790 131.000 C 147.426 125.829,145.600 120.232,145.600 118.157 C 145.600 115.188,148.531 111.502,150.338 112.199 C 150.924 112.424,150.908 112.504,150.200 112.886 C 149.025 113.520,149.020 113.534,149.661 114.298 C 149.986 114.684,150.476 115.990,150.751 117.200 C 151.203 119.187,151.674 120.587,152.904 123.600 C 153.552 125.188,154.488 127.339,154.859 128.095 C 155.046 128.477,155.200 128.967,155.200 129.184 C 155.200 129.401,155.626 130.528,156.146 131.689 C 156.667 132.850,157.408 134.610,157.794 135.600 C 158.543 137.522,159.012 138.681,159.814 140.600 C 160.375 141.941,160.781 142.965,161.800 145.600 C 162.962 148.605,164.185 151.522,164.859 152.895 C 165.046 153.277,165.206 153.907,165.213 154.295 C 165.220 154.683,165.490 155.349,165.813 155.776 C 166.136 156.204,166.400 156.881,166.400 157.282 C 166.400 157.683,166.565 158.323,166.766 158.705 C 167.502 160.100,168.400 162.332,168.400 162.766 C 168.400 163.011,168.558 163.523,168.751 163.905 C 169.604 165.591,170.400 167.675,170.400 168.219 C 170.400 168.545,170.562 169.123,170.759 169.505 C 170.956 169.887,171.428 171.010,171.807 172.000 C 172.186 172.990,172.639 174.160,172.814 174.600 C 172.990 175.040,173.229 175.760,173.346 176.200 C 173.796 177.892,176.706 186.040,176.947 186.280 C 177.086 186.419,177.200 186.943,177.200 187.443 C 177.200 187.943,177.366 188.455,177.569 188.581 C 177.772 188.706,178.065 189.386,178.220 190.091 C 178.537 191.534,178.871 192.184,180.632 194.782 C 181.310 195.782,182.732 198.247,183.792 200.260 C 188.360 208.937,190.530 210.605,194.066 208.154 C 196.349 206.572,196.542 204.263,194.742 200.064 C 192.316 194.405,191.465 192.629,191.100 192.467 C 190.935 192.393,190.800 192.093,190.800 191.799 C 190.800 191.292,189.635 188.827,189.193 188.400 C 189.017 188.230,187.067 184.455,183.511 177.400 C 183.068 176.520,182.554 175.530,182.371 175.200 C 180.959 172.664,170.784 151.811,169.196 148.200 C 168.712 147.100,167.724 144.940,166.999 143.400 C 166.275 141.860,165.409 139.970,165.076 139.200 C 164.502 137.875,163.890 136.518,161.111 130.400 C 160.461 128.970,159.654 127.170,159.316 126.400 C 158.113 123.655,156.697 120.583,156.153 119.538 C 155.849 118.954,155.600 118.189,155.600 117.838 C 155.600 117.487,155.420 117.200,155.200 117.200 C 154.980 117.200,154.800 116.842,154.800 116.405 C 154.800 115.968,154.080 114.933,153.201 114.105 C 151.459 112.466,151.217 111.759,152.300 111.476 C 153.547 111.150,154.004 111.191,155.336 111.747 M231.400 234.785 C 230.300 235.423,228.230 236.542,226.800 237.272 C 225.370 238.003,224.140 238.735,224.067 238.900 C 223.993 239.065,223.693 239.200,223.399 239.200 C 222.757 239.200,220.255 240.477,220.067 240.900 C 219.993 241.065,219.730 241.200,219.482 241.200 C 219.233 241.200,217.583 241.898,215.815 242.750 C 212.773 244.217,210.383 245.308,207.200 246.682 C 203.222 248.400,202.944 248.513,199.600 249.793 C 198.610 250.172,197.487 250.644,197.105 250.841 C 196.723 251.038,196.159 251.200,195.851 251.200 C 195.543 251.200,194.776 251.469,194.146 251.798 C 193.516 252.126,192.696 252.396,192.324 252.398 C 191.952 252.399,191.549 252.559,191.429 252.754 C 191.308 252.949,190.713 253.198,190.105 253.308 C 189.497 253.418,188.370 253.736,187.600 254.014 C 186.830 254.292,185.840 254.648,185.400 254.805 C 184.297 255.199,180.965 256.206,178.800 256.800 C 177.810 257.072,176.775 257.357,176.500 257.435 C 175.914 257.599,175.861 258.361,176.379 259.180 C 176.789 259.828,179.929 259.827,180.580 259.179 C 180.789 258.970,181.305 258.800,181.726 258.800 C 182.399 258.800,184.977 258.066,187.400 257.184 C 187.840 257.024,189.280 256.565,190.600 256.164 C 191.920 255.764,193.171 255.293,193.380 255.118 C 193.589 254.943,194.078 254.800,194.466 254.800 C 195.108 254.800,197.103 254.057,198.895 253.151 C 199.277 252.958,199.847 252.800,200.162 252.800 C 200.477 252.800,201.245 252.544,201.868 252.231 C 202.490 251.918,204.260 251.180,205.800 250.592 C 207.340 250.004,208.960 249.379,209.400 249.204 C 210.691 248.690,214.898 246.759,216.200 246.082 C 217.509 245.402,217.821 245.251,220.200 244.144 C 221.080 243.735,221.860 243.265,221.933 243.100 C 222.007 242.935,222.401 242.800,222.810 242.800 C 223.218 242.800,223.664 242.620,223.801 242.399 C 223.937 242.178,224.803 241.629,225.724 241.177 C 226.646 240.726,228.300 239.832,229.400 239.190 C 230.500 238.549,231.670 237.894,232.000 237.735 C 233.188 237.161,233.779 236.255,233.825 234.939 C 233.881 233.330,233.908 233.332,231.400 234.785 M175.449 290.451 C 174.329 292.051,174.150 291.944,180.800 293.639 C 183.330 294.284,186.210 295.059,187.200 295.361 C 188.190 295.664,190.350 296.313,192.000 296.804 C 205.426 300.798,218.629 305.914,231.600 312.148 C 234.893 313.731,235.787 313.514,235.517 311.200 C 235.400 310.201,229.608 306.872,224.090 304.633 C 223.051 304.211,221.300 303.454,220.200 302.951 C 214.314 300.258,210.074 298.616,205.400 297.219 C 202.540 296.365,198.670 295.193,196.800 294.615 C 183.378 290.466,176.393 289.104,175.449 290.451 M205.827 304.356 C 205.503 304.881,207.162 306.000,208.265 306.000 C 209.513 306.000,209.739 305.402,208.686 304.885 C 207.197 304.154,206.080 303.948,205.827 304.356 " stroke="none" fill="#040404" fill-rule="evenodd"></path><path id="path2" d="M152.300 111.476 C 151.217 111.759,151.459 112.466,153.201 114.105 C 154.080 114.933,154.800 115.968,154.800 116.405 C 154.800 116.842,154.980 117.200,155.200 117.200 C 155.420 117.200,155.600 117.487,155.600 117.838 C 155.600 118.189,155.849 118.954,156.153 119.538 C 156.697 120.583,158.113 123.655,159.316 126.400 C 159.654 127.170,160.461 128.970,161.111 130.400 C 163.890 136.518,164.502 137.875,165.076 139.200 C 165.409 139.970,166.275 141.860,166.999 143.400 C 167.724 144.940,168.712 147.100,169.196 148.200 C 170.784 151.811,180.959 172.664,182.371 175.200 C 182.554 175.530,183.068 176.520,183.511 177.400 C 187.067 184.455,189.017 188.230,189.193 188.400 C 189.635 188.827,190.800 191.292,190.800 191.799 C 190.800 192.093,190.935 192.393,191.100 192.467 C 191.465 192.629,192.316 194.405,194.742 200.064 C 196.542 204.263,196.349 206.572,194.066 208.154 C 190.530 210.605,188.360 208.937,183.792 200.260 C 182.732 198.247,181.310 195.782,180.632 194.782 C 178.871 192.184,178.537 191.534,178.220 190.091 C 178.065 189.386,177.772 188.706,177.569 188.581 C 177.366 188.455,177.200 187.943,177.200 187.443 C 177.200 186.943,177.086 186.419,176.947 186.280 C 176.706 186.040,173.796 177.892,173.346 176.200 C 173.229 175.760,172.990 175.040,172.814 174.600 C 172.639 174.160,172.186 172.990,171.807 172.000 C 171.428 171.010,170.956 169.887,170.759 169.505 C 170.562 169.123,170.400 168.545,170.400 168.219 C 170.400 167.675,169.604 165.591,168.751 163.905 C 168.558 163.523,168.400 163.011,168.400 162.766 C 168.400 162.332,167.502 160.100,166.766 158.705 C 166.565 158.323,166.400 157.683,166.400 157.282 C 166.400 156.881,166.136 156.204,165.813 155.776 C 165.490 155.349,165.220 154.683,165.213 154.295 C 165.206 153.907,165.046 153.277,164.859 152.895 C 164.185 151.522,162.962 148.605,161.800 145.600 C 160.781 142.965,160.375 141.941,159.814 140.600 C 159.012 138.681,158.543 137.522,157.794 135.600 C 157.408 134.610,156.667 132.850,156.146 131.689 C 155.626 130.528,155.200 129.401,155.200 129.184 C 155.200 128.967,155.046 128.477,154.859 128.095 C 154.488 127.339,153.552 125.188,152.904 123.600 C 151.674 120.587,151.203 119.187,150.751 117.200 C 150.476 115.990,149.986 114.684,149.661 114.298 C 149.020 113.534,149.025 113.520,150.200 112.886 C 150.908 112.504,150.924 112.424,150.338 112.199 C 149.638 111.929,146.814 113.513,146.805 114.180 C 146.802 114.389,147.016 114.344,147.280 114.080 C 148.447 112.913,149.360 114.162,150.582 118.600 C 150.946 119.920,151.398 121.360,151.588 121.800 C 155.850 131.680,166.472 158.733,170.278 169.400 C 170.828 170.940,171.699 173.370,172.214 174.800 C 173.825 179.271,175.090 182.851,176.596 187.200 C 179.041 194.259,179.269 194.749,184.406 204.000 C 185.445 205.870,186.689 208.120,187.170 209.000 C 189.463 213.190,194.091 213.431,196.947 209.510 C 198.716 207.082,196.396 200.827,187.485 184.000 C 184.834 178.994,174.580 158.482,172.188 153.400 C 169.745 148.209,167.324 143.013,166.410 141.000 C 163.929 135.537,159.908 126.556,158.800 124.000 C 156.074 117.715,154.484 114.574,153.657 113.838 C 152.062 112.420,152.883 111.195,154.910 111.966 C 155.487 112.185,156.733 113.040,157.679 113.865 L 159.400 115.366 158.000 113.836 C 156.062 111.716,154.250 110.966,152.300 111.476 M145.974 115.845 C 145.460 117.167,145.716 120.811,146.397 121.880 C 146.793 122.502,146.820 122.464,146.598 121.600 C 146.022 119.361,145.928 116.881,146.387 116.024 C 146.650 115.533,146.765 115.032,146.644 114.910 C 146.522 114.789,146.221 115.209,145.974 115.845 M160.241 117.421 C 160.853 118.509,161.759 120.210,162.256 121.200 C 162.752 122.190,163.170 122.820,163.185 122.600 C 163.221 122.075,161.087 117.839,160.700 117.667 C 160.535 117.593,160.400 117.300,160.400 117.016 C 160.400 116.731,160.114 116.260,159.764 115.970 C 159.403 115.670,159.609 116.297,160.241 117.421 M146.817 123.447 C 146.795 124.028,148.471 128.063,148.657 127.876 C 148.735 127.798,148.357 126.669,147.817 125.367 C 147.276 124.065,146.826 123.201,146.817 123.447 M163.213 123.254 C 163.206 123.394,163.469 124.024,163.798 124.654 C 164.126 125.284,164.396 125.519,164.398 125.176 C 164.400 124.590,163.240 122.708,163.213 123.254 M165.221 127.704 C 165.190 128.159,166.879 131.654,167.049 131.485 C 167.129 131.404,166.755 130.452,166.218 129.369 C 165.681 128.286,165.233 127.537,165.221 127.704 M148.821 128.625 C 148.792 129.207,150.415 132.519,150.625 132.308 C 150.719 132.215,150.355 131.252,149.818 130.169 C 149.281 129.086,148.833 128.391,148.821 128.625 M150.833 133.025 C 150.815 133.259,151.241 134.339,151.779 135.425 C 152.317 136.511,152.756 137.220,152.754 137.000 C 152.749 136.410,150.872 132.526,150.833 133.025 M152.950 138.000 C 153.301 139.299,154.509 142.024,154.665 141.868 C 154.756 141.778,154.370 140.735,153.809 139.552 C 153.247 138.368,152.861 137.670,152.950 138.000 M171.661 141.194 C 172.368 142.510,173.001 143.532,173.068 143.466 C 173.278 143.255,171.016 138.836,170.688 138.818 C 170.517 138.808,170.955 139.877,171.661 141.194 M154.825 142.876 C 154.811 143.248,154.980 143.664,155.200 143.800 C 155.420 143.936,155.600 144.295,155.600 144.598 C 155.600 145.350,156.382 147.352,156.593 147.140 C 156.759 146.974,156.180 145.221,155.291 143.200 C 154.991 142.518,154.843 142.415,154.825 142.876 M174.020 145.639 C 174.480 146.540,174.941 147.193,175.044 147.089 C 175.238 146.895,173.653 144.000,173.352 144.000 C 173.260 144.000,173.560 144.737,174.020 145.639 M176.046 149.196 C 176.539 150.073,177.008 150.726,177.087 150.646 C 177.259 150.474,175.606 147.600,175.335 147.600 C 175.233 147.600,175.552 148.318,176.046 149.196 M156.812 148.420 C 156.805 148.761,156.950 149.211,157.133 149.420 C 157.315 149.629,157.688 150.583,157.960 151.539 C 158.233 152.495,158.546 153.187,158.656 153.077 C 158.872 152.862,157.807 149.479,157.194 148.431 C 156.865 147.869,156.823 147.868,156.812 148.420 M178.083 152.778 C 178.556 153.665,179.002 154.332,179.073 154.260 C 179.264 154.069,178.012 151.655,177.586 151.391 C 177.386 151.268,177.610 151.892,178.083 152.778 M158.812 154.076 C 158.805 154.448,158.980 154.864,159.200 155.000 C 159.420 155.136,159.606 155.642,159.614 156.124 C 159.622 156.606,159.904 157.450,160.242 158.000 C 160.653 158.670,160.765 158.736,160.582 158.200 C 160.431 157.760,160.174 156.845,160.011 156.167 C 159.606 154.483,158.829 153.129,158.812 154.076 M179.856 155.992 C 180.493 157.269,181.200 157.917,181.200 157.224 C 181.200 156.991,181.040 156.800,180.843 156.800 C 180.647 156.800,180.374 156.350,180.236 155.800 C 180.098 155.250,179.822 154.800,179.623 154.800 C 179.424 154.800,179.529 155.336,179.856 155.992 M181.200 158.221 C 181.200 158.343,181.650 159.105,182.200 159.914 C 183.416 161.703,183.519 161.387,182.360 159.423 C 181.574 158.090,181.200 157.703,181.200 158.221 M161.016 160.400 C 161.659 163.101,161.924 163.928,162.373 164.633 C 162.844 165.375,162.851 165.374,162.584 164.600 C 162.432 164.160,162.169 163.260,161.999 162.600 C 161.829 161.940,161.485 160.950,161.234 160.400 L 160.777 159.400 161.016 160.400 M184.092 162.971 C 184.586 163.726,185.043 164.290,185.108 164.226 C 185.307 164.027,183.819 161.605,183.496 161.603 C 183.329 161.601,183.597 162.217,184.092 162.971 M186.831 167.300 C 188.683 170.168,189.200 170.775,189.200 170.080 C 189.200 169.816,189.020 169.600,188.800 169.600 C 188.580 169.600,188.400 169.440,188.400 169.245 C 188.400 168.739,185.858 164.851,185.509 164.823 C 185.349 164.810,185.944 165.925,186.831 167.300 M162.821 166.281 C 162.809 166.546,162.962 167.176,163.160 167.681 C 163.358 168.187,163.730 169.383,163.988 170.339 C 164.245 171.295,164.549 171.984,164.664 171.869 C 164.869 171.664,164.402 169.986,163.363 167.200 C 163.076 166.430,162.832 166.017,162.821 166.281 M190.000 172.000 C 191.098 173.542,191.358 173.543,190.481 172.003 C 190.107 171.344,189.653 170.804,189.473 170.803 C 189.293 170.801,189.530 171.340,190.000 172.000 M164.975 173.600 C 165.388 175.887,165.918 177.442,165.929 176.400 C 165.934 175.850,165.681 174.770,165.367 174.000 C 164.981 173.058,164.853 172.927,164.975 173.600 M192.392 175.298 C 193.130 176.342,194.097 177.512,194.541 177.898 C 194.989 178.288,194.752 177.755,194.008 176.702 C 193.270 175.658,192.303 174.488,191.859 174.102 C 191.411 173.712,191.648 174.245,192.392 175.298 M166.012 178.000 C 166.012 178.330,166.187 178.870,166.400 179.200 C 166.745 179.733,166.788 179.733,166.788 179.200 C 166.788 178.870,166.613 178.330,166.400 178.000 C 166.055 177.467,166.012 177.467,166.012 178.000 M196.684 180.477 C 198.528 182.515,202.944 186.790,203.073 186.660 C 203.201 186.532,195.624 178.800,195.371 178.800 C 195.259 178.800,195.850 179.554,196.684 180.477 M167.018 181.600 C 167.696 186.131,168.081 188.131,168.425 188.916 C 169.052 190.347,167.963 183.540,167.223 181.400 L 166.808 180.200 167.018 181.600 M238.826 186.036 C 237.630 186.244,236.550 186.526,236.426 186.662 C 236.302 186.797,237.190 186.749,238.400 186.554 C 241.134 186.114,253.702 186.087,255.600 186.517 C 256.830 186.796,256.903 186.772,256.200 186.319 C 255.211 185.682,242.083 185.468,238.826 186.036 M204.400 187.680 C 205.783 188.981,210.515 191.913,211.721 192.216 C 212.707 192.463,217.807 191.274,217.420 190.887 C 217.309 190.776,216.219 190.999,214.998 191.383 C 212.138 192.283,211.389 192.073,207.000 189.143 C 205.020 187.821,203.850 187.163,204.400 187.680 M232.000 187.212 C 231.581 187.491,231.942 187.533,233.200 187.350 C 235.441 187.025,235.760 186.798,233.967 186.806 C 233.215 186.809,232.330 186.992,232.000 187.212 M259.000 187.486 C 260.792 188.209,262.418 189.231,264.200 190.755 C 265.136 191.555,265.092 191.463,264.000 190.334 C 262.463 188.747,259.166 186.788,258.086 186.821 C 257.709 186.832,258.120 187.132,259.000 187.486 M227.300 188.048 C 226.585 188.254,226.000 188.527,226.000 188.655 C 226.000 188.782,226.495 188.750,227.100 188.583 C 227.705 188.416,228.920 188.149,229.800 187.990 L 231.400 187.700 230.000 187.686 C 229.230 187.678,228.015 187.841,227.300 188.048 M223.087 189.046 C 222.951 189.182,222.246 189.433,221.520 189.605 C 220.454 189.858,220.392 189.920,221.200 189.929 C 222.486 189.942,225.370 188.874,224.167 188.830 C 223.708 188.814,223.222 188.911,223.087 189.046 M168.979 198.600 C 168.980 202.890,169.092 204.992,169.256 203.800 C 169.604 201.259,169.601 196.444,169.248 193.600 C 169.081 192.247,168.977 194.172,168.979 198.600 M265.200 192.159 C 265.200 192.247,265.648 193.102,266.195 194.059 C 267.390 196.150,267.529 195.814,266.392 193.584 C 265.691 192.211,265.200 191.624,265.200 192.159 M267.213 196.620 C 267.206 196.851,267.365 197.211,267.566 197.420 C 267.768 197.629,268.013 198.250,268.112 198.800 L 268.291 199.800 268.346 198.776 C 268.375 198.214,268.136 197.404,267.813 196.976 C 267.490 196.549,267.220 196.389,267.213 196.620 M268.645 201.345 C 268.901 202.862,268.283 206.727,267.565 208.095 C 267.065 209.046,267.107 209.453,267.648 208.912 C 268.636 207.924,269.518 201.661,268.828 200.530 C 268.474 199.948,268.437 200.114,268.645 201.345 M168.044 208.870 C 167.752 209.898,167.608 210.978,167.725 211.270 C 167.841 211.561,167.951 211.383,167.968 210.874 C 167.986 210.364,168.191 209.590,168.425 209.153 C 168.659 208.716,168.789 208.053,168.713 207.679 C 168.637 207.306,168.336 207.841,168.044 208.870 M265.700 211.989 C 264.986 213.283,264.164 214.580,263.874 214.871 C 263.585 215.162,263.180 215.700,262.974 216.066 C 262.768 216.432,261.825 217.557,260.878 218.566 C 259.931 219.575,259.290 220.400,259.453 220.400 C 260.362 220.400,267.425 210.856,267.135 210.021 C 267.061 209.809,266.415 210.694,265.700 211.989 M164.600 213.810 L 163.400 214.816 164.900 213.968 C 165.725 213.502,166.400 213.049,166.400 212.960 C 166.400 212.557,165.701 212.887,164.600 213.810 M158.351 217.715 C 156.014 219.302,153.494 221.109,152.751 221.731 C 151.776 222.547,151.956 222.477,153.400 221.478 C 155.064 220.328,159.572 217.334,162.666 215.324 C 163.070 215.061,163.220 214.843,163.000 214.838 C 162.780 214.833,160.688 216.128,158.351 217.715 M150.346 223.323 C 145.036 227.364,139.190 232.830,136.786 236.000 C 136.035 236.990,135.324 237.890,135.207 238.000 C 134.620 238.548,132.801 241.647,132.805 242.091 C 132.807 242.371,133.247 241.835,133.782 240.899 C 136.209 236.654,142.072 230.424,148.300 225.472 C 149.895 224.204,151.200 223.084,151.200 222.983 C 151.200 222.718,151.076 222.767,150.346 223.323 M255.200 224.283 C 253.883 225.574,249.139 229.422,246.500 231.341 C 245.345 232.181,244.400 232.954,244.400 233.060 C 244.400 233.284,248.746 230.270,249.851 229.280 C 250.267 228.906,251.416 227.945,252.404 227.144 C 255.463 224.664,256.573 223.639,256.383 223.468 C 256.282 223.378,255.750 223.745,255.200 224.283 M232.200 233.747 C 223.530 238.751,213.851 243.427,203.600 247.565 C 195.564 250.809,194.834 251.143,195.705 251.174 C 196.093 251.188,196.723 251.038,197.105 250.841 C 197.487 250.644,198.610 250.172,199.600 249.793 C 202.944 248.513,203.222 248.400,207.200 246.682 C 210.383 245.308,212.773 244.217,215.815 242.750 C 217.583 241.898,219.233 241.200,219.482 241.200 C 219.730 241.200,219.993 241.065,220.067 240.900 C 220.255 240.477,222.757 239.200,223.399 239.200 C 223.693 239.200,223.993 239.065,224.067 238.900 C 224.140 238.735,225.370 238.003,226.800 237.272 C 228.230 236.542,230.300 235.423,231.400 234.785 C 233.908 233.332,233.881 233.330,233.825 234.939 C 233.779 236.255,233.188 237.161,232.000 237.735 C 231.670 237.894,230.500 238.549,229.400 239.190 C 228.300 239.832,226.646 240.726,225.724 241.177 C 224.803 241.629,223.937 242.178,223.801 242.399 C 223.664 242.620,223.218 242.800,222.810 242.800 C 222.401 242.800,222.007 242.935,221.933 243.100 C 221.860 243.265,221.080 243.735,220.200 244.144 C 217.821 245.251,217.509 245.402,216.200 246.082 C 214.898 246.759,210.691 248.690,209.400 249.204 C 208.960 249.379,207.340 250.004,205.800 250.592 C 204.260 251.180,202.490 251.918,201.868 252.231 C 201.245 252.544,200.477 252.800,200.162 252.800 C 199.847 252.800,199.277 252.958,198.895 253.151 C 197.103 254.057,195.108 254.800,194.466 254.800 C 194.078 254.800,193.589 254.943,193.380 255.118 C 193.171 255.293,191.920 255.764,190.600 256.164 C 189.280 256.565,187.840 257.024,187.400 257.184 C 184.977 258.066,182.399 258.800,181.726 258.800 C 181.305 258.800,180.789 258.970,180.580 259.179 C 179.929 259.827,176.789 259.828,176.379 259.180 C 175.861 258.361,175.914 257.599,176.500 257.435 C 176.775 257.357,177.810 257.072,178.800 256.800 C 180.965 256.206,184.297 255.199,185.400 254.805 C 185.840 254.648,186.830 254.292,187.600 254.014 C 188.370 253.736,189.497 253.418,190.105 253.308 C 190.713 253.198,191.308 252.949,191.429 252.754 C 191.549 252.559,191.895 252.400,192.198 252.400 C 193.035 252.400,194.940 251.607,194.694 251.361 C 194.575 251.242,192.165 251.941,189.339 252.915 C 186.512 253.890,182.159 255.280,179.663 256.006 C 177.168 256.731,175.040 257.552,174.933 257.830 C 174.619 258.649,176.007 260.400,176.971 260.400 C 179.041 260.400,188.587 257.544,198.400 253.989 C 200.930 253.073,204.710 251.728,206.800 251.002 C 213.407 248.706,234.746 237.361,235.332 235.833 C 236.203 233.563,234.492 232.424,232.200 233.747 M241.058 235.052 C 239.549 236.040,238.449 236.973,238.612 237.124 C 238.776 237.276,238.990 237.175,239.088 236.900 C 239.186 236.625,239.431 236.400,239.632 236.400 C 240.024 236.400,244.000 233.635,244.000 233.362 C 244.000 233.123,244.024 233.109,241.058 235.052 M237.200 237.611 C 230.801 241.494,229.200 242.533,229.200 242.804 C 229.200 242.982,230.505 242.248,232.100 241.173 C 233.695 240.098,235.225 239.215,235.500 239.209 C 235.775 239.204,236.000 239.020,236.000 238.800 C 236.000 238.580,236.248 238.400,236.551 238.400 C 236.854 238.400,237.326 238.130,237.600 237.800 C 238.160 237.125,238.071 237.083,237.200 237.611 M206.598 242.402 C 206.198 242.844,205.980 243.313,206.113 243.446 C 206.488 243.822,208.800 242.666,208.800 242.102 C 208.800 241.321,207.404 241.511,206.598 242.402 M132.032 243.539 C 131.795 243.984,131.600 244.743,131.600 245.227 C 131.600 245.711,131.391 246.804,131.136 247.655 C 130.777 248.854,130.787 249.585,131.178 250.901 C 131.931 253.432,132.405 254.529,132.643 254.291 C 132.760 254.174,132.675 253.745,132.455 253.339 C 131.298 251.205,131.349 245.520,132.540 243.673 C 132.727 243.384,132.787 243.053,132.672 242.939 C 132.558 242.825,132.270 243.095,132.032 243.539 M228.662 244.947 C 228.497 245.578,228.456 246.189,228.571 246.304 C 228.893 246.627,229.287 245.338,229.115 244.523 C 229.003 243.990,228.884 244.101,228.662 244.947 M227.910 248.600 C 227.239 253.408,227.204 254.723,227.825 251.800 C 228.153 250.260,228.368 248.460,228.305 247.800 C 228.216 246.875,228.125 247.058,227.910 248.600 M132.800 255.333 C 132.800 255.700,132.980 256.000,133.200 256.000 C 133.420 256.000,133.600 256.227,133.600 256.505 C 133.600 257.522,136.469 261.233,138.005 262.203 C 140.145 263.554,140.480 263.465,138.560 262.054 C 136.497 260.539,135.525 259.410,134.208 257.000 C 132.892 254.590,132.800 254.481,132.800 255.333 M226.439 262.706 C 226.131 266.064,225.996 268.929,226.139 269.072 C 226.283 269.216,226.400 268.502,226.400 267.486 C 226.400 266.471,226.589 264.757,226.821 263.678 C 227.052 262.599,227.187 260.566,227.121 259.158 C 227.022 257.076,226.896 257.736,226.439 262.706 M187.200 260.214 C 185.770 260.718,184.832 261.146,185.116 261.165 C 185.733 261.207,190.800 259.602,190.800 259.365 C 190.800 259.060,189.816 259.292,187.200 260.214 M194.000 259.360 C 194.000 259.569,196.763 261.200,197.116 261.200 C 197.264 261.200,196.723 260.750,195.914 260.200 C 194.497 259.237,194.000 259.019,194.000 259.360 M182.000 261.693 C 178.083 262.843,177.090 263.192,178.200 263.032 C 180.389 262.715,183.394 261.921,183.780 261.558 C 184.249 261.116,183.865 261.145,182.000 261.693 M197.600 261.509 C 197.600 261.708,198.005 262.060,198.500 262.290 C 199.640 262.821,208.536 269.400,209.770 270.627 C 210.363 271.215,212.696 272.649,212.200 272.120 C 211.499 271.372,207.516 268.267,203.800 265.573 C 198.220 261.526,197.600 261.120,197.600 261.509 M140.976 263.822 C 141.404 264.140,142.043 264.400,142.396 264.400 C 142.750 264.400,143.237 264.597,143.478 264.838 C 143.718 265.078,144.234 265.213,144.623 265.138 C 145.012 265.062,144.176 264.605,142.765 264.122 C 141.128 263.561,140.481 263.452,140.976 263.822 M174.706 263.428 C 174.581 263.553,173.606 263.802,172.539 263.981 C 170.889 264.257,170.808 264.308,172.000 264.322 C 173.556 264.340,177.144 263.311,175.767 263.242 C 175.308 263.219,174.831 263.302,174.706 263.428 M168.000 264.800 L 166.600 265.095 168.276 265.147 C 169.198 265.176,170.064 265.020,170.200 264.800 C 170.472 264.360,170.091 264.360,168.000 264.800 M147.200 265.646 C 147.789 265.921,150.665 266.151,154.200 266.206 L 160.200 266.299 154.600 266.010 C 151.520 265.851,148.370 265.598,147.600 265.450 C 146.314 265.201,146.282 265.217,147.200 265.646 M161.800 265.600 C 160.653 265.892,160.671 265.906,162.200 265.925 C 163.080 265.935,164.160 265.789,164.600 265.600 C 165.653 265.147,163.579 265.147,161.800 265.600 M225.400 270.400 C 225.250 270.873,225.217 271.350,225.327 271.460 C 225.437 271.570,225.650 271.273,225.800 270.800 C 225.950 270.327,225.983 269.850,225.873 269.740 C 225.763 269.630,225.550 269.927,225.400 270.400 M224.397 273.208 C 224.080 273.974,223.279 274.752,222.288 275.257 C 220.765 276.034,219.999 276.064,218.200 275.414 C 217.555 275.182,217.594 275.286,218.400 275.954 C 219.363 276.752,219.369 276.783,218.551 276.791 C 217.216 276.805,214.488 278.155,210.798 280.628 C 197.428 289.589,192.322 292.035,189.990 290.594 C 189.523 290.305,185.572 289.215,183.400 288.776 C 182.520 288.598,180.450 288.150,178.800 287.781 C 174.730 286.871,170.346 286.184,162.221 285.183 C 153.606 284.121,143.291 285.430,138.600 288.179 C 135.581 289.948,131.809 295.422,131.556 298.400 C 130.833 306.915,141.442 316.678,164.600 328.809 C 169.407 331.328,170.950 338.485,169.255 350.400 C 168.989 352.270,168.671 354.610,168.547 355.600 C 168.423 356.590,168.160 357.571,167.961 357.780 C 167.376 358.396,167.493 361.067,168.080 360.480 C 168.344 360.216,168.938 360.000,169.400 360.000 C 170.653 360.000,172.370 359.095,172.628 358.300 C 172.752 357.915,173.022 357.600,173.227 357.600 C 173.432 357.600,173.600 357.313,173.600 356.962 C 173.600 356.611,173.849 355.846,174.153 355.262 C 174.457 354.678,175.200 353.120,175.804 351.800 C 178.286 346.372,179.078 344.836,181.163 341.400 C 188.415 329.452,190.192 328.112,195.661 330.464 C 199.211 331.992,199.073 335.222,195.128 342.902 C 192.813 347.409,189.320 353.599,188.764 354.180 C 188.564 354.389,188.400 354.798,188.400 355.088 C 188.400 355.378,187.934 356.355,187.364 357.257 C 186.025 359.378,186.505 359.913,189.866 360.042 C 192.561 360.145,193.371 359.785,196.085 357.273 C 196.909 356.511,197.992 355.606,198.491 355.262 C 198.991 354.918,199.580 354.438,199.800 354.196 C 200.954 352.923,203.867 351.103,209.200 348.324 L 212.200 346.761 214.400 347.399 C 217.197 348.211,219.083 348.699,220.600 349.002 C 221.260 349.133,223.060 349.515,224.600 349.849 C 226.140 350.184,228.120 350.538,229.000 350.636 C 229.880 350.734,231.500 350.982,232.600 351.188 C 242.267 352.998,254.939 352.966,259.200 351.121 C 263.598 349.216,264.869 348.059,266.700 344.292 C 271.779 333.842,260.802 321.228,235.200 308.092 C 232.450 306.681,230.004 305.365,229.765 305.168 C 228.673 304.269,227.477 298.145,226.568 288.800 C 226.194 284.950,225.733 281.629,225.544 281.420 C 225.355 281.211,225.200 280.722,225.200 280.334 C 225.200 279.298,222.853 276.800,221.880 276.800 C 221.203 276.800,221.348 276.575,222.640 275.625 C 224.202 274.477,225.547 272.613,225.121 272.188 C 225.004 272.070,224.678 272.530,224.397 273.208 M212.800 272.700 C 212.800 273.028,216.415 275.319,216.615 275.118 C 216.681 275.052,215.850 274.412,214.768 273.696 C 213.685 272.980,212.800 272.532,212.800 272.700 M220.000 277.404 C 220.000 278.056,215.091 284.141,213.065 286.000 C 211.746 287.210,209.573 289.325,208.236 290.700 C 206.900 292.075,205.581 293.200,205.306 293.200 C 205.032 293.200,204.582 293.560,204.307 294.000 C 203.688 294.991,201.066 295.089,198.938 294.200 C 198.149 293.870,197.085 293.600,196.575 293.600 C 196.065 293.600,195.536 293.420,195.400 293.200 C 195.264 292.980,194.544 292.800,193.800 292.800 C 193.056 292.800,192.336 292.620,192.200 292.400 C 192.064 292.180,192.145 292.000,192.381 292.000 C 192.850 292.000,196.243 290.561,197.200 289.956 C 197.530 289.747,198.115 289.471,198.500 289.342 C 198.885 289.212,199.200 288.948,199.200 288.753 C 199.200 288.559,199.457 288.400,199.771 288.400 C 200.086 288.400,200.581 288.168,200.871 287.885 C 201.162 287.601,202.075 287.053,202.900 286.666 C 203.725 286.279,204.400 285.791,204.400 285.581 C 204.400 285.372,204.608 285.200,204.862 285.200 C 205.116 285.200,205.914 284.750,206.636 284.200 C 207.357 283.650,208.112 283.200,208.315 283.200 C 208.517 283.200,209.169 282.750,209.762 282.200 C 210.356 281.650,210.939 281.200,211.059 281.200 C 211.179 281.200,211.838 280.795,212.525 280.300 C 215.184 278.382,220.000 276.516,220.000 277.404 M223.694 278.900 C 224.898 280.482,225.161 281.686,225.592 287.600 C 225.777 290.130,226.124 293.170,226.364 294.355 C 226.604 295.540,226.800 297.284,226.800 298.231 C 226.800 299.178,226.980 300.064,227.200 300.200 C 227.420 300.336,227.597 301.292,227.594 302.324 C 227.587 304.310,226.831 304.004,226.793 302.000 C 226.783 301.450,226.510 300.651,226.187 300.224 C 225.864 299.796,225.600 299.164,225.600 298.818 C 225.600 298.473,225.201 298.012,224.713 297.795 C 223.126 297.088,220.270 290.170,220.176 286.800 C 220.142 285.590,220.454 283.197,220.870 281.483 C 221.286 279.768,221.519 278.193,221.389 277.983 C 220.746 276.942,222.838 277.774,223.694 278.900 M165.600 286.401 C 172.067 287.085,174.668 287.472,175.233 287.831 C 175.545 288.029,176.790 288.314,178.000 288.464 C 180.654 288.792,174.640 288.570,170.000 288.168 C 167.312 287.935,166.896 287.996,166.000 288.754 L 165.000 289.600 165.944 290.400 C 166.476 290.851,167.470 291.200,168.221 291.200 C 168.953 291.200,169.664 291.380,169.800 291.600 C 169.936 291.820,170.594 292.000,171.262 292.000 C 171.930 292.000,172.954 292.244,173.538 292.542 C 175.184 293.382,178.593 294.400,179.759 294.400 C 180.338 294.400,181.123 294.567,181.505 294.771 C 182.553 295.331,186.244 296.400,187.129 296.400 C 187.558 296.400,188.424 296.669,189.054 296.998 C 189.684 297.326,190.594 297.596,191.076 297.598 C 191.558 297.599,192.064 297.780,192.200 298.000 C 192.336 298.220,192.866 298.400,193.378 298.400 C 193.890 298.400,194.824 298.669,195.454 298.998 C 196.084 299.326,196.904 299.596,197.276 299.598 C 197.648 299.599,198.064 299.780,198.200 300.000 C 198.336 300.220,198.977 300.400,199.624 300.400 C 200.271 300.400,200.800 300.580,200.800 300.800 C 200.800 301.020,200.350 301.200,199.800 301.200 C 199.067 301.200,198.800 301.413,198.800 302.000 C 198.800 302.703,198.533 302.800,196.595 302.800 C 195.382 302.800,194.036 303.020,193.605 303.290 C 192.985 303.677,192.717 303.677,192.330 303.290 C 191.690 302.650,188.800 302.642,188.800 303.280 C 188.800 303.653,188.693 303.653,188.320 303.280 C 187.645 302.605,174.355 302.605,173.680 303.280 C 173.307 303.653,173.200 303.653,173.200 303.280 C 173.200 303.013,172.667 302.800,172.000 302.800 C 171.333 302.800,170.800 303.013,170.800 303.280 C 170.800 303.653,170.693 303.653,170.320 303.280 C 169.656 302.616,160.344 302.616,159.680 303.280 C 159.307 303.653,159.200 303.653,159.200 303.280 C 159.200 302.632,154.328 302.632,153.680 303.280 C 153.307 303.653,153.200 303.653,153.200 303.280 C 153.200 302.601,142.694 302.610,141.605 303.290 C 140.985 303.677,140.717 303.677,140.330 303.290 C 139.423 302.383,134.400 302.645,134.400 303.600 C 134.400 304.732,133.735 304.594,133.436 303.400 C 133.298 302.850,133.008 302.400,132.792 302.400 C 132.576 302.400,132.400 301.240,132.400 299.821 C 132.400 297.271,132.553 296.838,134.950 292.600 C 136.279 290.251,140.863 287.200,143.065 287.200 C 143.506 287.200,144.000 287.065,144.164 286.900 C 145.280 285.772,157.065 285.498,165.600 286.401 M183.797 289.595 C 183.953 289.847,183.345 289.899,182.121 289.739 C 179.590 289.407,179.432 289.200,181.710 289.200 C 182.723 289.200,183.663 289.378,183.797 289.595 M182.800 290.801 C 187.521 291.951,193.099 293.471,196.800 294.615 C 198.670 295.193,202.540 296.365,205.400 297.219 C 210.074 298.616,214.314 300.258,220.200 302.951 C 221.300 303.454,223.051 304.211,224.090 304.633 C 229.608 306.872,235.400 310.201,235.517 311.200 C 235.787 313.514,234.893 313.731,231.600 312.148 C 218.629 305.914,205.426 300.798,192.000 296.804 C 190.350 296.313,188.190 295.664,187.200 295.361 C 186.210 295.059,183.330 294.284,180.800 293.639 C 174.150 291.944,174.329 292.051,175.449 290.451 C 176.188 289.396,177.240 289.446,182.800 290.801 M187.505 290.675 C 187.122 290.775,186.402 290.779,185.905 290.683 C 185.407 290.587,185.720 290.505,186.600 290.501 C 187.480 290.496,187.887 290.575,187.505 290.675 M191.385 291.576 C 191.524 291.801,191.009 291.859,190.109 291.720 C 188.100 291.410,187.939 291.200,189.710 291.200 C 190.503 291.200,191.257 291.369,191.385 291.576 M208.686 304.885 C 209.739 305.402,209.513 306.000,208.265 306.000 C 207.162 306.000,205.503 304.881,205.827 304.356 C 206.080 303.948,207.197 304.154,208.686 304.885 " stroke="none" fill="#5e5f5f" fill-rule="evenodd"></path><path id="path3" d="M154.833 112.116 C 154.925 112.180,155.720 112.733,156.600 113.345 L 158.200 114.458 156.815 113.229 C 156.053 112.553,155.258 112.000,155.048 112.000 C 154.838 112.000,154.742 112.052,154.833 112.116 M154.070 113.947 C 154.581 114.578,155.063 115.041,155.139 114.975 C 155.356 114.788,153.841 112.827,153.470 112.813 C 153.288 112.806,153.558 113.316,154.070 113.947 M146.578 115.500 C 145.779 117.394,146.285 122.084,147.518 124.210 C 148.071 125.164,148.137 124.785,147.638 123.519 C 145.698 118.593,146.753 112.113,148.977 115.289 C 149.320 115.778,149.600 115.986,149.600 115.751 C 149.600 115.202,148.278 114.000,147.674 114.000 C 147.419 114.000,146.926 114.675,146.578 115.500 M158.802 115.876 C 158.803 116.054,159.251 116.740,159.796 117.400 L 160.789 118.600 160.169 117.308 C 159.560 116.038,158.798 115.240,158.802 115.876 M160.813 119.224 C 160.820 119.541,161.090 120.149,161.413 120.576 C 161.827 121.124,161.996 121.183,161.987 120.776 C 161.980 120.459,161.710 119.851,161.387 119.424 C 160.973 118.876,160.804 118.817,160.813 119.224 M162.879 123.609 C 163.339 124.715,163.802 125.532,163.909 125.425 C 164.115 125.218,162.518 121.600,162.220 121.600 C 162.123 121.600,162.420 122.504,162.879 123.609 M148.009 125.505 C 148.004 125.783,148.161 126.323,148.357 126.705 C 148.553 127.087,148.920 127.918,149.172 128.552 C 149.424 129.185,149.726 129.608,149.843 129.491 C 149.960 129.374,149.879 128.945,149.664 128.539 C 149.449 128.133,148.990 127.170,148.645 126.400 C 148.300 125.630,148.014 125.227,148.009 125.505 M160.028 126.200 C 160.028 126.420,160.286 127.050,160.600 127.600 C 160.914 128.150,161.172 128.420,161.172 128.200 C 161.172 127.980,160.914 127.350,160.600 126.800 C 160.286 126.250,160.028 125.980,160.028 126.200 M164.013 126.105 C 164.006 126.273,164.160 126.723,164.355 127.105 C 164.550 127.487,165.200 128.880,165.798 130.200 C 167.554 134.076,167.726 134.407,167.895 134.238 C 167.983 134.150,167.888 133.745,167.683 133.339 C 166.203 130.403,165.188 128.136,165.194 127.776 C 165.201 127.292,164.032 125.639,164.013 126.105 M150.014 130.225 C 150.006 130.459,150.336 131.359,150.747 132.225 C 151.491 133.791,152.259 135.552,153.159 137.752 C 153.418 138.385,153.726 138.808,153.843 138.691 C 153.960 138.574,153.878 138.145,153.661 137.739 C 153.445 137.333,152.998 136.370,152.669 135.600 C 151.322 132.447,150.027 129.826,150.014 130.225 M162.028 130.600 C 162.028 130.820,162.286 131.450,162.600 132.000 C 162.914 132.550,163.172 132.820,163.172 132.600 C 163.172 132.380,162.914 131.750,162.600 131.200 C 162.286 130.650,162.028 130.380,162.028 130.600 M168.490 135.900 C 168.999 137.082,170.000 138.716,170.000 138.364 C 170.000 137.989,168.389 134.800,168.199 134.800 C 168.099 134.800,168.230 135.295,168.490 135.900 M154.025 139.505 C 154.011 139.783,154.165 140.323,154.367 140.705 C 154.568 141.087,154.953 141.991,155.220 142.713 C 155.488 143.435,155.765 143.968,155.836 143.898 C 155.906 143.827,155.731 143.146,155.447 142.385 C 154.563 140.016,154.052 138.979,154.025 139.505 M170.800 140.114 C 170.800 140.375,173.106 144.802,175.010 148.200 C 175.627 149.300,176.483 150.830,176.911 151.600 C 178.818 155.023,179.710 156.423,179.877 156.256 C 179.977 156.157,179.595 155.342,179.029 154.446 C 178.463 153.549,178.000 152.632,178.000 152.408 C 178.000 152.184,177.841 152.000,177.647 152.000 C 177.452 152.000,177.192 151.685,177.069 151.300 C 176.945 150.915,176.272 149.610,175.573 148.400 C 174.873 147.190,173.596 144.858,172.735 143.217 C 171.172 140.242,170.800 139.646,170.800 140.114 M158.828 141.000 C 158.828 141.220,159.086 141.850,159.400 142.400 C 159.714 142.950,159.972 143.220,159.972 143.000 C 159.972 142.780,159.714 142.150,159.400 141.600 C 159.086 141.050,158.828 140.780,158.828 141.000 M156.002 144.654 C 155.998 145.395,157.167 147.859,157.184 147.146 C 157.193 146.786,156.931 145.976,156.602 145.346 C 156.274 144.716,156.004 144.404,156.002 144.654 M157.369 148.634 C 157.537 149.055,158.012 150.441,158.425 151.713 C 158.838 152.986,159.374 154.336,159.618 154.713 C 160.006 155.316,160.026 155.302,159.779 154.600 C 159.624 154.160,159.406 153.350,159.295 152.800 C 159.184 152.250,158.958 151.620,158.793 151.400 C 158.627 151.180,158.368 150.417,158.215 149.705 C 158.063 148.992,157.742 148.288,157.501 148.139 C 157.208 147.958,157.165 148.121,157.369 148.634 M170.028 148.200 C 170.028 148.420,170.286 149.050,170.600 149.600 C 170.914 150.150,171.172 150.420,171.172 150.200 C 171.172 149.980,170.914 149.350,170.600 148.800 C 170.286 148.250,170.028 147.980,170.028 148.200 M162.828 151.000 C 162.828 151.220,163.086 151.850,163.400 152.400 C 163.714 152.950,163.972 153.220,163.972 153.000 C 163.972 152.780,163.714 152.150,163.400 151.600 C 163.086 151.050,162.828 150.780,162.828 151.000 M160.032 156.276 C 160.014 156.758,160.180 157.264,160.400 157.400 C 160.620 157.536,160.806 158.042,160.814 158.524 C 160.822 159.006,161.104 159.850,161.442 160.400 C 161.854 161.071,161.966 161.137,161.782 160.600 C 161.632 160.160,161.425 159.440,161.321 159.000 C 161.218 158.560,160.981 157.840,160.796 157.400 C 160.610 156.960,160.370 156.330,160.261 156.000 C 160.136 155.621,160.052 155.723,160.032 156.276 M164.814 156.054 C 164.806 156.194,165.063 156.914,165.384 157.654 C 165.706 158.394,165.969 158.730,165.970 158.400 C 165.972 157.824,164.843 155.534,164.814 156.054 M174.028 156.600 C 174.028 156.820,174.286 157.450,174.600 158.000 C 174.914 158.550,175.172 158.820,175.172 158.600 C 175.172 158.380,174.914 157.750,174.600 157.200 C 174.286 156.650,174.028 156.380,174.028 156.600 M181.070 158.652 C 183.271 162.547,186.204 167.179,186.475 167.190 C 186.626 167.195,185.501 165.215,183.975 162.788 C 182.449 160.362,181.200 158.224,181.200 158.037 C 181.200 157.851,180.917 157.463,180.570 157.175 C 180.224 156.888,180.449 157.552,181.070 158.652 M162.019 162.476 C 162.009 163.068,162.180 163.664,162.400 163.800 C 162.620 163.936,162.814 164.442,162.832 164.924 C 162.849 165.406,162.950 165.587,163.056 165.327 C 163.162 165.067,162.976 164.077,162.643 163.127 C 162.137 161.682,162.035 161.576,162.019 162.476 M168.816 166.654 C 168.807 166.904,169.063 167.714,169.384 168.454 C 169.706 169.194,169.976 169.596,169.984 169.346 C 169.993 169.096,169.737 168.286,169.416 167.546 C 169.094 166.806,168.824 166.404,168.816 166.654 M186.824 167.731 C 186.803 168.019,187.556 169.153,190.703 173.580 C 193.958 178.159,200.154 185.122,202.161 186.456 C 202.842 186.909,202.207 186.137,200.749 184.740 C 196.532 180.700,191.325 174.257,187.324 168.130 C 187.061 167.728,186.836 167.549,186.824 167.731 M164.171 169.200 C 164.522 171.215,165.244 173.747,165.644 174.365 C 165.962 174.856,165.996 174.773,165.795 174.000 C 165.652 173.450,165.446 172.550,165.338 172.000 C 165.229 171.450,164.986 170.640,164.799 170.200 C 164.612 169.760,164.355 169.130,164.227 168.800 C 164.100 168.470,164.075 168.650,164.171 169.200 M170.816 172.254 C 170.807 172.504,171.063 173.314,171.384 174.054 C 171.706 174.794,171.976 175.196,171.984 174.946 C 171.993 174.696,171.737 173.886,171.416 173.146 C 171.094 172.406,170.824 172.004,170.816 172.254 M166.192 176.200 C 166.498 178.359,167.196 180.908,167.013 179.200 C 166.931 178.430,166.674 177.170,166.443 176.400 C 166.071 175.164,166.042 175.141,166.192 176.200 M172.816 177.854 C 172.807 178.104,173.063 178.914,173.384 179.654 C 173.706 180.394,173.976 180.796,173.984 180.546 C 173.993 180.296,173.737 179.486,173.416 178.746 C 173.094 178.006,172.824 177.604,172.816 177.854 M185.000 178.800 C 185.341 179.460,185.711 180.000,185.821 180.000 C 185.931 180.000,185.741 179.460,185.400 178.800 C 185.059 178.140,184.689 177.600,184.579 177.600 C 184.469 177.600,184.659 178.140,185.000 178.800 M167.212 181.200 C 167.212 181.530,167.387 182.070,167.600 182.400 C 167.945 182.933,167.988 182.933,167.988 182.400 C 167.988 182.070,167.813 181.530,167.600 181.200 C 167.255 180.667,167.212 180.667,167.212 181.200 M168.234 185.200 C 168.341 186.190,168.586 188.080,168.780 189.400 L 169.131 191.800 168.986 189.200 C 168.907 187.770,168.662 185.880,168.441 185.000 L 168.040 183.400 168.234 185.200 M241.154 186.179 C 241.027 186.306,239.591 186.578,237.962 186.783 L 235.000 187.157 238.000 186.912 C 241.961 186.590,253.272 186.591,255.800 186.915 C 257.796 187.171,257.797 187.170,256.200 186.736 C 254.494 186.272,241.541 185.793,241.154 186.179 M203.601 187.464 C 203.601 187.649,204.546 188.430,205.701 189.200 C 206.855 189.970,207.890 190.691,208.000 190.803 C 209.398 192.223,212.332 193.128,213.819 192.598 C 214.688 192.289,215.073 192.027,214.674 192.018 C 214.274 192.008,213.590 192.191,213.152 192.425 C 212.321 192.871,207.429 190.351,204.752 188.098 C 204.119 187.565,203.600 187.280,203.601 187.464 M232.400 187.600 L 231.400 187.920 232.400 187.954 C 232.950 187.973,233.670 187.813,234.000 187.600 C 234.764 187.106,233.942 187.106,232.400 187.600 M228.000 188.400 C 227.670 188.613,226.860 188.804,226.200 188.824 C 225.540 188.844,224.370 189.119,223.600 189.433 C 222.281 189.973,222.269 189.993,223.400 189.783 C 225.538 189.386,228.167 188.819,229.600 188.446 L 231.000 188.082 229.800 188.047 C 229.140 188.028,228.330 188.187,228.000 188.400 M260.224 188.587 C 260.651 188.910,261.180 189.186,261.400 189.201 C 262.055 189.243,263.380 190.503,264.731 192.368 C 266.183 194.372,266.390 194.307,265.166 192.232 C 264.307 190.776,260.898 188.000,259.970 188.000 C 259.655 188.000,259.755 188.233,260.224 188.587 M176.830 189.600 C 176.828 190.176,177.957 192.466,177.986 191.946 C 177.994 191.806,177.737 191.086,177.416 190.346 C 177.094 189.606,176.831 189.270,176.830 189.600 M220.000 190.400 C 219.670 190.613,218.950 190.811,218.400 190.840 C 217.764 190.874,217.645 190.957,218.073 191.071 C 218.443 191.168,219.523 190.976,220.473 190.643 C 221.423 190.310,221.840 190.032,221.400 190.025 C 220.960 190.018,220.330 190.187,220.000 190.400 M169.400 198.544 C 169.400 202.229,169.517 204.829,169.660 204.322 C 169.992 203.146,169.986 194.578,169.653 193.022 C 169.514 192.374,169.400 194.859,169.400 198.544 M179.200 195.739 C 179.200 197.105,187.544 211.998,189.291 213.749 C 190.990 215.453,196.056 214.542,198.015 212.181 C 199.263 210.678,197.731 201.914,195.765 199.307 C 195.472 198.918,195.794 200.040,196.480 201.800 C 199.175 208.712,198.105 212.074,192.859 213.188 C 189.338 213.935,188.265 212.673,181.805 200.200 C 179.514 195.775,179.200 195.238,179.200 195.739 M194.028 196.200 C 194.028 196.420,194.286 197.050,194.600 197.600 C 194.914 198.150,195.172 198.420,195.172 198.200 C 195.172 197.980,194.914 197.350,194.600 196.800 C 194.286 196.250,194.028 195.980,194.028 196.200 M266.822 196.200 C 266.816 196.420,267.071 197.320,267.388 198.200 C 267.705 199.080,267.973 199.506,267.982 199.146 C 267.992 198.786,267.737 197.886,267.416 197.146 C 267.094 196.406,266.827 195.980,266.822 196.200 M267.894 202.199 C 267.753 203.518,267.786 204.746,267.969 204.929 C 268.467 205.427,268.813 202.797,268.460 201.200 C 268.164 199.863,268.138 199.909,267.894 202.199 M168.728 207.400 C 168.590 208.500,168.363 209.940,168.224 210.600 C 168.072 211.318,168.227 211.108,168.608 210.077 C 168.959 209.129,169.186 207.689,169.113 206.877 C 168.986 205.468,168.968 205.493,168.728 207.400 M267.646 206.505 C 267.621 206.893,267.435 207.523,267.234 207.905 C 267.032 208.287,266.558 209.320,266.181 210.200 C 265.351 212.134,262.418 216.346,260.212 218.773 C 259.325 219.748,258.857 220.392,259.172 220.205 C 261.802 218.637,268.352 208.321,267.875 206.498 C 267.703 205.840,267.690 205.841,267.646 206.505 M166.600 213.006 L 165.400 214.009 166.697 213.304 C 167.411 212.917,167.996 212.465,167.997 212.300 C 168.001 211.863,167.919 211.904,166.600 213.006 M163.400 215.035 L 162.200 216.066 163.600 215.163 C 165.396 214.004,165.401 214.000,164.967 214.002 C 164.765 214.003,164.060 214.468,163.400 215.035 M158.290 218.149 C 154.900 220.451,153.229 221.898,155.800 220.306 C 158.432 218.677,162.159 215.999,161.766 216.019 C 161.565 216.030,160.000 216.988,158.290 218.149 M257.131 221.900 C 255.787 223.377,254.025 224.911,250.200 227.932 C 248.440 229.322,246.730 230.675,246.400 230.939 C 246.070 231.202,244.488 232.297,242.884 233.373 C 239.692 235.513,238.458 236.726,241.256 234.973 C 242.215 234.372,243.090 233.772,243.200 233.640 C 243.310 233.508,244.424 232.711,245.676 231.868 C 246.927 231.026,248.331 230.007,248.795 229.604 C 249.259 229.202,250.386 228.271,251.299 227.536 C 255.319 224.302,259.054 220.800,258.484 220.800 C 258.291 220.800,257.682 221.295,257.131 221.900 M152.600 222.206 L 151.400 223.209 152.697 222.504 C 153.411 222.117,153.996 221.665,153.997 221.500 C 154.001 221.063,153.919 221.104,152.600 222.206 M148.000 225.711 C 142.446 230.208,134.000 239.138,134.000 240.513 C 134.000 240.973,134.985 239.957,135.273 239.200 C 135.657 238.193,141.739 231.524,144.212 229.400 C 145.493 228.300,146.734 227.217,146.970 226.994 C 147.301 226.682,149.887 224.666,151.167 223.723 C 151.258 223.655,151.258 223.529,151.167 223.441 C 151.075 223.354,149.650 224.375,148.000 225.711 M233.836 232.342 C 233.719 232.530,234.069 232.599,234.612 232.496 C 235.305 232.363,235.600 232.485,235.600 232.903 C 235.600 233.232,235.711 234.054,235.846 234.731 C 236.079 235.894,235.952 236.051,233.546 237.577 C 232.146 238.466,231.144 239.194,231.319 239.196 C 231.796 239.202,235.868 236.538,236.197 236.005 C 236.871 234.915,235.999 232.000,234.999 232.000 C 234.476 232.000,233.952 232.154,233.836 232.342 M225.900 236.629 C 224.405 237.440,224.496 237.778,226.000 237.000 C 226.660 236.659,227.200 236.294,227.200 236.190 C 227.200 235.932,227.157 235.947,225.900 236.629 M234.532 238.719 C 232.081 240.215,229.833 241.641,229.535 241.888 C 228.937 242.384,227.780 245.913,228.108 246.241 C 228.221 246.354,228.549 245.531,228.836 244.412 L 229.357 242.376 234.279 239.328 C 238.583 236.661,239.540 236.000,239.094 236.000 C 239.036 236.000,236.983 237.224,234.532 238.719 M207.597 239.974 C 205.670 240.560,204.055 241.598,203.828 242.396 C 203.703 242.838,203.498 243.560,203.373 244.000 C 203.114 244.915,205.265 245.170,206.400 244.359 C 206.882 244.015,206.823 243.969,206.100 244.128 C 204.242 244.535,204.572 241.972,206.503 241.009 C 210.154 239.187,211.795 241.435,208.200 243.334 C 207.540 243.683,207.142 243.975,207.316 243.984 C 207.953 244.016,210.623 242.460,211.395 241.606 C 212.776 240.080,210.486 239.095,207.597 239.974 M216.400 241.400 C 215.850 241.714,215.580 241.972,215.800 241.972 C 216.020 241.972,216.650 241.714,217.200 241.400 C 217.750 241.086,218.020 240.828,217.800 240.828 C 217.580 240.828,216.950 241.086,216.400 241.400 M132.828 242.836 C 132.373 243.779,132.009 244.921,132.019 245.375 C 132.030 245.829,132.319 245.390,132.662 244.400 C 133.005 243.410,133.472 242.371,133.700 242.090 C 133.928 241.810,134.011 241.478,133.885 241.352 C 133.759 241.226,133.283 241.894,132.828 242.836 M226.224 241.813 C 225.796 242.136,225.627 242.400,225.847 242.400 C 226.067 242.400,226.596 242.136,227.024 241.813 C 227.451 241.490,227.620 241.225,227.400 241.225 C 227.180 241.225,226.651 241.490,226.224 241.813 M223.900 243.029 C 222.405 243.840,222.496 244.178,224.000 243.400 C 224.660 243.059,225.200 242.694,225.200 242.590 C 225.200 242.332,225.157 242.347,223.900 243.029 M217.000 246.753 C 214.580 248.035,212.060 249.372,211.400 249.724 C 210.740 250.076,208.347 250.934,206.081 251.630 C 203.816 252.327,202.040 252.974,202.135 253.068 C 202.229 253.163,203.402 252.871,204.741 252.420 C 208.764 251.065,209.741 251.351,210.256 254.038 C 210.757 256.653,216.132 265.600,217.202 265.600 C 217.389 265.600,217.103 260.645,216.659 256.200 C 216.433 253.931,214.852 250.866,213.829 250.715 C 212.620 250.536,215.260 248.164,218.660 246.374 C 220.823 245.235,222.098 244.361,221.524 244.411 C 221.456 244.417,219.420 245.470,217.000 246.753 M207.600 245.400 C 207.050 245.714,206.780 245.972,207.000 245.972 C 207.220 245.972,207.850 245.714,208.400 245.400 C 208.950 245.086,209.220 244.828,209.000 244.828 C 208.780 244.828,208.150 245.086,207.600 245.400 M131.720 249.200 C 131.720 250.410,131.795 250.905,131.887 250.300 C 131.978 249.695,131.978 248.705,131.887 248.100 C 131.795 247.495,131.720 247.990,131.720 249.200 M227.269 250.000 C 226.977 251.650,226.810 253.900,226.897 255.000 L 227.056 257.000 227.128 254.677 C 227.168 253.400,227.396 251.578,227.635 250.628 C 227.874 249.679,228.009 248.475,227.935 247.951 C 227.861 247.428,227.561 248.350,227.269 250.000 M132.032 251.867 C 131.987 252.519,133.578 256.155,133.807 255.926 C 133.910 255.823,133.660 255.033,133.251 254.169 C 132.842 253.306,132.407 252.330,132.285 252.000 C 132.163 251.670,132.049 251.610,132.032 251.867 M174.032 257.657 C 172.689 259.099,174.761 261.437,177.074 261.089 C 178.149 260.928,178.141 260.917,176.894 260.860 C 175.088 260.777,173.726 258.282,174.984 257.362 C 175.407 257.053,175.546 256.800,175.292 256.800 C 175.039 256.800,174.472 257.186,174.032 257.657 M226.286 259.000 C 226.133 259.880,226.030 261.500,226.056 262.600 C 226.099 264.386,226.142 264.279,226.456 261.600 C 226.845 258.296,226.725 256.466,226.286 259.000 M191.600 258.469 C 186.935 259.979,186.627 260.252,190.767 259.211 C 193.093 258.625,194.050 258.900,197.442 261.131 C 199.005 262.159,201.075 263.522,202.042 264.160 C 203.009 264.798,203.890 265.440,204.000 265.588 C 204.209 265.868,207.179 268.135,210.600 270.626 C 212.435 271.962,212.246 271.743,209.660 269.537 C 202.350 263.302,193.474 257.863,191.600 258.469 M136.941 260.664 C 138.037 261.879,141.588 264.000,142.526 264.000 C 142.775 264.000,141.903 263.446,140.589 262.768 C 139.275 262.090,137.660 261.055,137.000 260.468 L 135.800 259.400 136.941 260.664 M181.600 261.459 C 180.123 262.053,181.026 261.965,183.600 261.263 C 184.689 260.967,184.778 260.883,184.000 260.889 C 183.450 260.892,182.370 261.149,181.600 261.459 M178.000 262.400 C 177.467 262.745,177.467 262.788,178.000 262.788 C 178.330 262.788,178.870 262.613,179.200 262.400 C 179.733 262.055,179.733 262.012,179.200 262.012 C 178.870 262.012,178.330 262.187,178.000 262.400 M174.271 263.062 C 174.127 263.206,173.332 263.471,172.504 263.649 L 171.000 263.974 172.600 263.789 C 173.480 263.688,174.920 263.445,175.800 263.249 L 177.400 262.892 175.967 262.846 C 175.178 262.821,174.415 262.918,174.271 263.062 M143.600 264.400 C 143.930 264.613,144.470 264.788,144.800 264.788 C 145.333 264.788,145.333 264.745,144.800 264.400 C 144.470 264.187,143.930 264.012,143.600 264.012 C 143.067 264.012,143.067 264.055,143.600 264.400 M168.000 264.400 C 167.236 264.894,168.058 264.894,169.600 264.400 L 170.600 264.080 169.600 264.046 C 169.050 264.027,168.330 264.187,168.000 264.400 M148.600 265.431 C 151.957 266.089,158.956 265.998,164.400 265.227 C 166.838 264.881,166.789 264.873,163.600 265.100 C 158.861 265.436,151.098 265.431,148.000 265.090 C 145.447 264.809,145.458 264.815,148.600 265.431 M225.515 267.400 C 225.373 268.500,225.155 270.030,225.029 270.800 C 224.778 272.344,224.870 272.178,225.584 269.796 C 225.848 268.913,225.999 267.563,225.919 266.796 C 225.785 265.511,225.753 265.559,225.515 267.400 M213.104 272.485 C 213.576 273.053,216.800 274.973,216.800 274.685 C 216.800 274.594,215.867 273.940,214.727 273.231 C 213.587 272.522,212.857 272.187,213.104 272.485 M223.122 274.250 C 222.657 274.714,221.692 274.910,219.736 274.935 C 218.231 274.954,217.360 275.041,217.800 275.128 C 218.240 275.215,218.812 275.458,219.071 275.668 C 219.700 276.178,222.582 275.304,223.456 274.339 C 224.280 273.428,224.014 273.357,223.122 274.250 M215.986 278.327 C 214.769 278.917,213.211 279.805,212.525 280.300 C 211.838 280.795,211.179 281.200,211.059 281.200 C 210.939 281.200,210.356 281.650,209.762 282.200 C 209.169 282.750,208.517 283.200,208.315 283.200 C 208.112 283.200,207.357 283.650,206.636 284.200 C 205.914 284.750,205.116 285.200,204.862 285.200 C 204.608 285.200,204.400 285.372,204.400 285.581 C 204.400 285.791,203.725 286.279,202.900 286.666 C 202.075 287.053,201.162 287.601,200.871 287.885 C 200.581 288.168,200.086 288.400,199.771 288.400 C 199.457 288.400,199.200 288.559,199.200 288.753 C 199.200 288.948,198.885 289.212,198.500 289.342 C 198.115 289.471,197.530 289.747,197.200 289.956 C 196.243 290.561,192.850 292.000,192.381 292.000 C 192.145 292.000,192.064 292.180,192.200 292.400 C 192.336 292.620,193.056 292.800,193.800 292.800 C 194.544 292.800,195.264 292.980,195.400 293.200 C 195.536 293.420,196.065 293.600,196.575 293.600 C 197.085 293.600,198.149 293.870,198.938 294.200 C 201.066 295.089,203.688 294.991,204.307 294.000 C 204.582 293.560,205.038 293.200,205.321 293.200 C 205.913 293.200,209.600 289.413,209.600 288.805 C 209.600 288.582,209.825 288.399,210.100 288.399 C 210.932 288.397,215.727 283.565,217.517 280.925 C 218.441 279.563,219.377 278.338,219.598 278.201 C 221.698 276.904,218.709 277.008,215.986 278.327 M221.270 279.804 C 220.988 281.016,220.858 282.170,220.981 282.369 C 221.104 282.569,220.987 282.804,220.720 282.893 C 218.579 283.607,222.065 296.616,224.713 297.795 C 225.201 298.012,225.600 298.473,225.600 298.818 C 225.600 299.164,225.864 299.796,226.187 300.224 C 226.510 300.651,226.783 301.450,226.793 302.000 C 226.831 304.004,227.587 304.310,227.594 302.324 C 227.597 301.292,227.420 300.336,227.200 300.200 C 226.980 300.064,226.800 299.178,226.800 298.231 C 226.800 297.284,226.604 295.540,226.364 294.355 C 226.124 293.170,225.777 290.130,225.592 287.600 C 225.161 281.686,224.898 280.482,223.694 278.900 C 222.318 277.092,221.860 277.263,221.270 279.804 M147.730 286.135 C 145.932 286.391,144.327 286.735,144.164 286.900 C 144.000 287.065,143.506 287.200,143.065 287.200 C 140.863 287.200,136.279 290.251,134.950 292.600 C 132.553 296.838,132.400 297.271,132.400 299.821 C 132.400 301.240,132.576 302.400,132.792 302.400 C 133.008 302.400,133.298 302.850,133.436 303.400 C 133.735 304.594,134.400 304.732,134.400 303.600 C 134.400 302.645,139.423 302.383,140.330 303.290 C 140.717 303.677,140.985 303.677,141.605 303.290 C 142.694 302.610,153.200 302.601,153.200 303.280 C 153.200 303.653,153.307 303.653,153.680 303.280 C 154.328 302.632,159.200 302.632,159.200 303.280 C 159.200 303.653,159.307 303.653,159.680 303.280 C 160.344 302.616,169.656 302.616,170.320 303.280 C 170.693 303.653,170.800 303.653,170.800 303.280 C 170.800 303.013,171.333 302.800,172.000 302.800 C 172.667 302.800,173.200 303.013,173.200 303.280 C 173.200 303.653,173.307 303.653,173.680 303.280 C 174.355 302.605,187.645 302.605,188.320 303.280 C 188.693 303.653,188.800 303.653,188.800 303.280 C 188.800 302.642,191.690 302.650,192.330 303.290 C 192.717 303.677,192.985 303.677,193.605 303.290 C 194.036 303.020,195.382 302.800,196.595 302.800 C 198.533 302.800,198.800 302.703,198.800 302.000 C 198.800 301.413,199.067 301.200,199.800 301.200 C 200.350 301.200,200.800 301.020,200.800 300.800 C 200.800 300.580,200.271 300.400,199.624 300.400 C 198.977 300.400,198.336 300.220,198.200 300.000 C 198.064 299.780,197.648 299.599,197.276 299.598 C 196.904 299.596,196.084 299.326,195.454 298.998 C 194.824 298.669,193.890 298.400,193.378 298.400 C 192.866 298.400,192.336 298.220,192.200 298.000 C 192.064 297.780,191.558 297.599,191.076 297.598 C 190.594 297.596,189.684 297.326,189.054 296.998 C 188.424 296.669,187.558 296.400,187.129 296.400 C 186.244 296.400,182.553 295.331,181.505 294.771 C 181.123 294.567,180.338 294.400,179.759 294.400 C 178.593 294.400,175.184 293.382,173.538 292.542 C 172.954 292.244,171.930 292.000,171.262 292.000 C 170.594 292.000,169.936 291.820,169.800 291.600 C 169.664 291.380,169.068 291.198,168.476 291.195 C 165.635 291.180,164.476 289.954,166.076 288.658 C 166.871 288.013,167.419 287.945,170.000 288.168 C 174.640 288.570,180.654 288.792,178.000 288.464 C 176.790 288.314,175.545 288.029,175.233 287.831 C 174.668 287.472,172.067 287.085,165.600 286.401 C 159.673 285.774,151.156 285.647,147.730 286.135 M180.033 289.344 C 180.470 289.720,184.021 289.957,183.797 289.595 C 183.663 289.378,182.723 289.200,181.710 289.200 C 180.696 289.200,179.942 289.265,180.033 289.344 M185.905 290.683 C 186.402 290.779,187.122 290.775,187.505 290.675 C 187.887 290.575,187.480 290.496,186.600 290.501 C 185.720 290.505,185.407 290.587,185.905 290.683 M188.433 291.343 C 188.850 291.702,191.597 291.919,191.385 291.576 C 191.257 291.369,190.503 291.200,189.710 291.200 C 188.916 291.200,188.342 291.265,188.433 291.343 " stroke="none" fill="#848484" fill-rule="evenodd"></path><path id="path4" d="M152.931 112.235 C 152.778 112.635,153.111 113.264,153.833 113.935 C 154.963 114.986,154.966 114.987,154.089 113.974 C 153.018 112.739,152.963 112.121,153.900 111.876 C 154.556 111.704,154.555 111.690,153.887 111.646 C 153.496 111.621,153.065 111.886,152.931 112.235 M147.633 113.704 C 147.725 113.762,148.230 114.167,148.757 114.604 L 149.713 115.400 149.160 114.500 C 148.856 114.005,148.351 113.600,148.037 113.600 C 147.723 113.600,147.542 113.647,147.633 113.704 M168.828 146.200 C 168.828 146.420,169.086 147.050,169.400 147.600 C 169.714 148.150,169.972 148.420,169.972 148.200 C 169.972 147.980,169.714 147.350,169.400 146.800 C 169.086 146.250,168.828 145.980,168.828 146.200 M192.828 194.200 C 192.828 194.420,193.086 195.050,193.400 195.600 C 193.714 196.150,193.972 196.420,193.972 196.200 C 193.972 195.980,193.714 195.350,193.400 194.800 C 193.086 194.250,192.828 193.980,192.828 194.200 M180.000 196.552 C 180.000 197.662,187.962 211.468,189.346 212.757 C 190.345 213.688,190.444 213.700,192.833 213.193 C 197.249 212.256,198.573 210.087,197.597 205.386 C 196.967 202.350,196.701 202.809,197.282 205.931 C 197.838 208.921,197.260 210.034,194.392 211.500 C 190.990 213.238,189.081 212.494,186.950 208.600 C 186.348 207.500,184.808 204.723,183.527 202.430 C 182.247 200.136,181.194 198.156,181.187 198.030 C 181.167 197.666,180.000 196.213,180.000 196.552 M194.828 198.600 C 194.828 198.820,195.086 199.450,195.400 200.000 C 195.714 200.550,195.972 200.820,195.972 200.600 C 195.972 200.380,195.714 199.750,195.400 199.200 C 195.086 198.650,194.828 198.380,194.828 198.600 M234.472 232.900 C 235.329 233.585,235.647 235.157,235.133 236.165 C 234.741 236.933,234.760 236.950,235.369 236.370 C 236.360 235.428,235.829 232.400,234.672 232.400 C 233.945 232.400,233.922 232.459,234.472 232.900 M206.343 241.044 C 205.320 241.584,204.548 243.269,204.993 243.989 C 205.376 244.609,208.586 243.408,210.117 242.072 C 211.581 240.793,208.436 239.937,206.343 241.044 M208.800 242.102 C 208.800 242.666,206.488 243.822,206.113 243.446 C 205.980 243.313,206.198 242.844,206.598 242.402 C 207.404 241.511,208.800 241.321,208.800 242.102 M221.900 243.829 C 220.405 244.640,220.496 244.978,222.000 244.200 C 222.660 243.859,223.200 243.494,223.200 243.390 C 223.200 243.132,223.157 243.147,221.900 243.829 M213.200 248.285 C 212.210 248.849,210.320 249.726,209.000 250.234 C 207.680 250.743,206.780 251.166,207.000 251.175 C 207.910 251.212,211.319 249.969,212.381 249.213 C 213.010 248.766,213.686 248.400,213.885 248.400 C 214.084 248.400,214.596 248.136,215.024 247.813 C 216.255 246.881,215.171 247.162,213.200 248.285 M174.559 257.764 C 173.784 259.782,176.586 261.443,179.000 260.397 C 179.529 260.168,179.182 260.125,177.975 260.269 C 176.036 260.502,174.422 259.163,174.957 257.768 C 175.077 257.455,175.085 257.200,174.975 257.200 C 174.865 257.200,174.678 257.454,174.559 257.764 " stroke="none" fill="#7c848a" fill-rule="evenodd"></path></g></svg>