<?xml version="1.0" standalone="no"?>
<!DOCTYPE svg PUBLIC "-//W3C//DTD SVG 20010904//EN"
 "http://www.w3.org/TR/2001/REC-SVG-20010904/DTD/svg10.dtd">
<svg version="1.0" xmlns="http://www.w3.org/2000/svg"
 width="3736.000000pt" height="1266.000000pt" viewBox="0 0 3736.000000 1266.000000"
 preserveAspectRatio="xMidYMid meet">

<g transform="translate(0.000000,1266.000000) scale(0.100000,-0.100000)"
fill="#000000" stroke="none">
<path d="M6235 12090 c-1252 -86 -2388 -543 -3358 -1351 -166 -139 -578 -554
-712 -718 -373 -457 -657 -922 -873 -1426 -530 -1241 -606 -2647 -212 -3945
188 -622 489 -1218 883 -1754 307 -417 774 -884 1197 -1198 493 -366 1065
-662 1645 -852 1166 -381 2424 -381 3590 0 690 226 1338 586 1915 1064 174
144 572 545 721 725 294 355 518 697 719 1095 375 744 573 1501 615 2356 l7
131 -54 6 c-147 18 -314 -3 -414 -53 -109 -54 -170 -145 -194 -292 -5 -36 -10
-253 -10 -505 l0 -443 -425 0 -425 0 0 1025 0 1025 390 0 390 0 2 -182 3 -183
31 65 c107 224 280 331 556 347 l107 6 -4 26 c-3 14 -12 76 -21 136 -132 909
-513 1825 -1069 2570 -223 299 -543 649 -810 885 -611 539 -1325 943 -2100
1186 -376 119 -766 197 -1185 239 -185 19 -721 27 -905 15z m296 -5070 c109
-371 219 -763 245 -870 25 -107 49 -201 53 -208 4 -7 24 63 44 155 21 93 133
490 250 883 l213 715 567 3 567 2 0 -532 0 -533 88 87 c128 126 225 187 395
247 178 63 266 75 527 75 207 0 247 -3 340 -23 139 -30 205 -52 325 -111 286
-139 469 -389 531 -725 25 -139 16 -416 -20 -550 -35 -136 -118 -300 -198
-392 -220 -254 -550 -383 -978 -383 -392 0 -684 102 -912 319 l-98 93 0 -171
0 -171 -421 0 -421 0 6 913 c3 501 3 905 0 897 -2 -9 -22 -88 -43 -175 -36
-151 -400 -1533 -422 -1602 l-11 -33 -323 0 -323 0 -11 33 c-52 163 -393 1436
-425 1588 l-41 196 3 -908 4 -909 -421 0 -421 0 0 1385 0 1385 567 -2 567 -3
197 -675z"/>
<path d="M9336 6460 c-135 -53 -192 -181 -202 -450 -10 -250 28 -413 116 -500
65 -66 122 -83 253 -78 92 3 108 7 157 34 66 37 111 99 140 192 43 139 49 379
14 545 -29 140 -107 237 -212 267 -63 17 -211 12 -266 -10z"/>
<path d="M25647 7794 c-4 -4 -7 -110 -7 -236 l0 -228 225 0 225 0 -2 233 -3
232 -216 3 c-118 1 -218 -1 -222 -4z"/>
<path d="M26330 7565 l0 -235 223 2 222 3 0 230 0 230 -222 3 -223 2 0 -235z"/>
<path d="M14150 7475 l0 -295 430 0 430 0 0 295 0 295 -430 0 -430 0 0 -295z"/>
<path d="M22660 6320 l0 -1390 300 0 300 0 0 488 0 489 151 141 c83 78 154
142 158 142 3 0 217 -284 475 -630 l469 -630 369 0 369 0 -64 83 c-236 303
-1189 1551 -1193 1561 -3 7 253 261 568 566 315 304 575 557 576 562 2 4 -164
8 -369 8 l-374 0 -567 -567 -568 -568 -2 565 -3 565 -297 3 -298 2 0 -1390z"/>
<path d="M27477 7703 c-4 -3 -7 -629 -7 -1390 l0 -1383 285 0 285 0 0 593 c0
325 4 631 10 679 12 120 46 193 121 262 90 84 143 101 314 101 159 0 196 -12
254 -82 73 -89 80 -173 81 -955 l0 -598 285 0 286 0 -3 813 c-3 737 -5 817
-21 871 -43 147 -140 257 -290 331 -130 64 -188 77 -359 82 -113 4 -166 1
-230 -12 -155 -31 -284 -99 -395 -208 l-53 -51 0 477 0 477 -278 0 c-153 0
-282 -3 -285 -7z"/>
<path d="M29720 6320 l0 -1390 290 0 290 0 -2 1388 -3 1387 -287 3 -288 2 0
-1390z"/>
<path d="M16030 7044 c-374 -45 -627 -180 -725 -386 -62 -130 -80 -280 -51
-419 22 -100 53 -157 130 -235 126 -126 282 -186 767 -294 150 -33 296 -71
325 -84 65 -30 94 -72 94 -137 0 -61 -31 -107 -95 -139 -45 -23 -62 -25 -170
-25 -114 0 -123 1 -173 29 -66 37 -101 92 -109 171 l-6 55 -413 0 c-227 0
-415 -3 -417 -7 -14 -23 35 -216 73 -293 75 -149 226 -270 422 -339 163 -57
277 -73 540 -79 347 -6 551 20 764 100 281 106 435 321 434 610 -1 243 -101
400 -323 508 -141 68 -436 151 -782 220 -184 37 -235 72 -235 162 0 89 52 131
182 144 82 8 165 -9 219 -46 46 -31 89 -92 89 -127 l0 -23 390 0 390 0 -7 33
c-12 66 -54 183 -82 232 -83 144 -239 255 -439 314 -155 46 -227 54 -497 56
-143 2 -276 1 -295 -1z"/>
<path d="M18395 7035 c-300 -48 -557 -185 -713 -379 -77 -96 -154 -251 -189
-381 -26 -94 -27 -112 -27 -320 0 -206 2 -226 26 -317 100 -367 346 -610 733
-723 158 -46 267 -57 495 -52 280 7 405 35 615 138 232 113 395 293 480 532
126 353 84 776 -105 1058 -54 80 -176 202 -255 254 -123 81 -255 135 -430 176
-120 28 -492 36 -630 14z m401 -570 c96 -28 157 -95 195 -214 30 -92 39 -396
15 -521 -41 -219 -148 -308 -360 -298 -77 3 -99 8 -146 33 -67 37 -109 91
-137 177 -45 137 -53 393 -18 563 29 139 94 225 193 258 60 20 194 21 258 2z"/>
<path d="M31190 7035 c-205 -35 -355 -109 -473 -234 -214 -227 -222 -608 -15
-795 144 -131 324 -195 929 -331 186 -41 236 -86 227 -198 -6 -69 -34 -109
-102 -142 -71 -35 -169 -49 -296 -42 -231 12 -369 103 -387 255 l-6 52 -290 0
-290 0 5 -87 c18 -296 222 -522 548 -607 128 -34 237 -46 410 -46 524 0 848
159 957 471 21 61 27 98 31 204 7 207 -30 310 -152 421 -108 98 -275 162 -636
244 -412 93 -474 114 -511 174 -25 39 -21 115 8 154 54 73 135 96 323 90 122
-3 130 -4 196 -38 77 -39 128 -101 139 -168 4 -20 8 -43 11 -50 3 -10 64 -12
281 -10 l278 3 -3 45 c-10 151 -75 293 -182 401 -124 125 -279 199 -490 234
-116 18 -402 19 -510 0z"/>
<path d="M33300 7039 c-521 -92 -823 -522 -797 -1134 18 -436 200 -768 507
-928 173 -91 333 -123 570 -114 276 10 494 92 663 247 127 117 212 253 262
418 l6 22 -289 0 -290 0 -25 -43 c-46 -79 -131 -141 -225 -166 -63 -17 -227
-15 -292 5 -111 32 -186 98 -235 207 -25 53 -55 183 -55 233 l0 24 721 0 722
0 -6 178 c-6 187 -21 292 -64 426 -98 312 -316 517 -638 602 -88 23 -123 27
-290 30 -104 1 -215 -2 -245 -7z m402 -479 c71 -26 151 -97 184 -161 26 -51
54 -155 54 -201 l0 -28 -420 0 c-329 0 -420 3 -420 13 1 38 32 152 55 196 51
102 128 166 235 196 78 21 236 14 312 -15z"/>
<path d="M13727 7014 c-193 -42 -317 -134 -407 -304 l-39 -75 -1 173 0 172
-400 0 -400 0 0 -1025 0 -1025 430 0 430 0 0 408 c0 224 5 452 10 506 16 167
81 272 202 329 85 40 159 51 321 50 l147 -1 0 404 0 404 -112 -1 c-62 0 -144
-7 -181 -15z"/>
<path d="M21350 7015 c-189 -42 -348 -130 -482 -267 l-58 -59 0 146 0 145
-390 0 -390 0 0 -1025 0 -1025 425 0 425 0 0 513 c1 281 5 557 10 613 15 172
63 259 168 311 51 25 68 28 153 28 82 0 102 -4 145 -26 55 -28 86 -68 111
-143 16 -46 18 -117 21 -673 l3 -623 430 0 431 0 -5 698 c-5 747 -8 808 -56
947 -35 103 -83 175 -176 264 -79 75 -187 135 -300 166 -84 24 -375 30 -465
10z"/>
<path d="M35735 7015 c-154 -35 -295 -112 -397 -217 l-58 -59 0 121 0 120
-280 0 -280 0 0 -1025 0 -1025 290 0 289 0 3 673 3 672 23 56 c42 104 139 190
251 223 71 21 230 21 300 0 68 -20 122 -73 151 -150 33 -91 40 -226 40 -876
l0 -598 285 0 286 0 -3 798 -3 797 -23 75 c-34 108 -79 187 -147 255 -69 69
-148 114 -255 146 -96 28 -379 36 -475 14z"/>
<path d="M14150 5955 l0 -1025 430 0 430 0 0 1025 0 1025 -430 0 -430 0 0
-1025z"/>
<path d="M25242 6193 c4 -787 4 -788 27 -868 47 -166 144 -297 267 -362 192
-101 479 -119 707 -42 115 38 192 85 284 172 l73 70 0 -117 0 -116 285 0 285
0 0 1025 0 1025 -290 0 -290 0 0 -622 c0 -380 -4 -648 -10 -687 -26 -158 -144
-284 -300 -320 -66 -15 -209 -13 -266 4 -101 30 -162 111 -183 246 -7 40 -11
313 -11 722 l0 657 -290 0 -291 0 3 -787z"/>
</g>
</svg>
