<?xml version="1.0" standalone="no"?>
<!DOCTYPE svg PUBLIC "-//W3C//DTD SVG 20010904//EN"
 "http://www.w3.org/TR/2001/REC-SVG-20010904/DTD/svg10.dtd">
<svg version="1.0" xmlns="http://www.w3.org/2000/svg"
 width="3736.000000pt" height="1266.000000pt" viewBox="0 0 3736.000000 1266.000000"
 preserveAspectRatio="xMidYMid meet">

<g transform="translate(0.000000,1266.000000) scale(0.100000,-0.100000)"
fill="#000000" stroke="none">
<path d="M5200 6315 l0 -1385 421 0 421 0 -4 909 -3 908 41 -196 c32 -152 373
-1425 425 -1588 l11 -33 323 0 323 0 11 33 c22 69 386 1451 422 1602 21 87 41
166 43 175 3 8 3 -396 0 -897 l-6 -913 421 0 421 0 0 171 0 171 98 -93 c228
-217 520 -319 912 -319 428 0 758 129 978 383 80 92 163 256 198 392 36 134
45 411 20 550 -62 336 -245 586 -531 725 -120 59 -186 81 -325 111 -93 20
-133 23 -340 23 -261 0 -349 -12 -527 -75 -170 -60 -267 -121 -395 -247 l-88
-87 0 533 0 532 -567 -2 -567 -3 -213 -715 c-117 -393 -229 -790 -250 -883
-20 -92 -40 -162 -44 -155 -4 7 -28 101 -53 208 -26 107 -136 499 -245 870
l-197 675 -567 3 -567 2 0 -1385z m4402 155 c105 -30 183 -127 212 -267 35
-166 29 -406 -14 -545 -29 -93 -74 -155 -140 -192 -49 -27 -65 -31 -157 -34
-131 -5 -188 12 -253 78 -88 87 -126 250 -116 500 10 269 67 397 202 450 55
22 203 27 266 10z"/>
<path d="M12105 7015 c-210 -40 -348 -145 -439 -335 l-31 -65 -3 183 -2 182
-390 0 -390 0 0 -1025 0 -1025 425 0 425 0 0 443 c0 453 5 526 41 621 61 165
239 245 517 232 l122 -6 0 405 0 405 -102 -1 c-57 0 -134 -7 -173 -14z"/>
</g>
</svg>
